# The Utah teapot (Martin Newell, 1975), tessellated from the patch data of three.js's
# TeapotGeometry (MIT licence), in the model's units. Build the mod's model with:
#   sltool shp from-obj teapot.obj teapot.shp --two-sided
mtllib teapot.mtl
v 0.0000 68.8645 273.5043
v -107.3504 68.8645 252.3077
v -194.1880 68.8645 194.1880
v -252.3077 68.8645 107.3504
v -273.5043 68.8645 0.0000
v 0.0000 83.2875 269.6886
v -105.8528 83.2875 248.7878
v -191.4789 83.2875 191.4789
v -248.7878 83.2875 105.8528
v -269.6886 83.2875 0.0000
v 0.0000 88.0952 274.1148
v -107.5900 88.0952 252.8709
v -194.6215 88.0952 194.6215
v -252.8709 88.0952 107.5900
v -274.1148 88.0952 0.0000
v 0.0000 83.2875 283.1197
v -111.1245 83.2875 261.1779
v -201.0150 83.2875 201.0150
v -261.1779 83.2875 111.1245
v -283.1197 83.2875 0.0000
v 0.0000 68.8645 293.0403
v -115.0183 68.8645 270.3297
v -208.0586 68.8645 208.0586
v -270.3297 68.8645 115.0183
v -293.0403 68.8645 0.0000
v -273.5043 68.8645 0.0000
v -252.3077 68.8645 -107.3504
v -194.1880 68.8645 -194.1880
v -107.3504 68.8645 -252.3077
v 0.0000 68.8645 -273.5043
v -269.6886 83.2875 0.0000
v -248.7878 83.2875 -105.8528
v -191.4789 83.2875 -191.4789
v -105.8528 83.2875 -248.7878
v 0.0000 83.2875 -269.6886
v -274.1148 88.0952 0.0000
v -252.8709 88.0952 -107.5900
v -194.6215 88.0952 -194.6215
v -107.5900 88.0952 -252.8709
v 0.0000 88.0952 -274.1148
v -283.1197 83.2875 0.0000
v -261.1779 83.2875 -111.1245
v -201.0150 83.2875 -201.0150
v -111.1245 83.2875 -261.1779
v 0.0000 83.2875 -283.1197
v -293.0403 68.8645 0.0000
v -270.3297 68.8645 -115.0183
v -208.0586 68.8645 -208.0586
v -115.0183 68.8645 -270.3297
v 0.0000 68.8645 -293.0403
v 0.0000 68.8645 -273.5043
v 107.3504 68.8645 -252.3077
v 194.1880 68.8645 -194.1880
v 252.3077 68.8645 -107.3504
v 273.5043 68.8645 0.0000
v 0.0000 83.2875 -269.6886
v 105.8528 83.2875 -248.7878
v 191.4789 83.2875 -191.4789
v 248.7878 83.2875 -105.8528
v 269.6886 83.2875 0.0000
v 0.0000 88.0952 -274.1148
v 107.5900 88.0952 -252.8709
v 194.6215 88.0952 -194.6215
v 252.8709 88.0952 -107.5900
v 274.1148 88.0952 0.0000
v 0.0000 83.2875 -283.1197
v 111.1245 83.2875 -261.1779
v 201.0150 83.2875 -201.0150
v 261.1779 83.2875 -111.1245
v 283.1197 83.2875 0.0000
v 0.0000 68.8645 -293.0403
v 115.0183 68.8645 -270.3297
v 208.0586 68.8645 -208.0586
v 270.3297 68.8645 -115.0183
v 293.0403 68.8645 0.0000
v 273.5043 68.8645 0.0000
v 252.3077 68.8645 107.3504
v 194.1880 68.8645 194.1880
v 107.3504 68.8645 252.3077
v 0.0000 68.8645 273.5043
v 269.6886 83.2875 0.0000
v 248.7878 83.2875 105.8528
v 191.4789 83.2875 191.4789
v 105.8528 83.2875 248.7878
v 0.0000 83.2875 269.6886
v 274.1148 88.0952 0.0000
v 252.8709 88.0952 107.5900
v 194.6215 88.0952 194.6215
v 107.5900 88.0952 252.8709
v 0.0000 88.0952 274.1148
v 283.1197 83.2875 0.0000
v 261.1779 83.2875 111.1245
v 201.0150 83.2875 201.0150
v 111.1245 83.2875 261.1779
v 0.0000 83.2875 283.1197
v 293.0403 68.8645 0.0000
v 270.3297 68.8645 115.0183
v 208.0586 68.8645 208.0586
v 115.0183 68.8645 270.3297
v 0.0000 68.8645 293.0403
v 0.0000 68.8645 293.0403
v -115.0183 68.8645 270.3297
v -208.0586 68.8645 208.0586
v -270.3297 68.8645 115.0183
v -293.0403 68.8645 0.0000
v 0.0000 -7.8297 328.9072
v -129.0961 -7.8297 303.4169
v -233.5241 -7.8297 233.5241
v -303.4169 -7.8297 129.0961
v -328.9072 -7.8297 0.0000
v 0.0000 -83.1502 360.1954
v -141.3767 -83.1502 332.2802
v -255.7387 -83.1502 255.7387
v -332.2802 -83.1502 141.3767
v -360.1954 -83.1502 0.0000
v 0.0000 -155.7234 382.3260
v -150.0630 -155.7234 352.6957
v -271.4515 -155.7234 271.4515
v -352.6957 -155.7234 150.0630
v -382.3260 -155.7234 0.0000
v 0.0000 -224.1758 390.7204
v -153.3578 -224.1758 360.4396
v -277.4115 -224.1758 277.4115
v -360.4396 -224.1758 153.3578
v -390.7204 -224.1758 0.0000
v -293.0403 68.8645 0.0000
v -270.3297 68.8645 -115.0183
v -208.0586 68.8645 -208.0586
v -115.0183 68.8645 -270.3297
v 0.0000 68.8645 -293.0403
v -328.9072 -7.8297 0.0000
v -303.4169 -7.8297 -129.0961
v -233.5241 -7.8297 -233.5241
v -129.0961 -7.8297 -303.4169
v 0.0000 -7.8297 -328.9072
v -360.1954 -83.1502 0.0000
v -332.2802 -83.1502 -141.3767
v -255.7387 -83.1502 -255.7387
v -141.3767 -83.1502 -332.2802
v 0.0000 -83.1502 -360.1954
v -382.3260 -155.7234 0.0000
v -352.6957 -155.7234 -150.0630
v -271.4515 -155.7234 -271.4515
v -150.0630 -155.7234 -352.6957
v 0.0000 -155.7234 -382.3260
v -390.7204 -224.1758 0.0000
v -360.4396 -224.1758 -153.3578
v -277.4115 -224.1758 -277.4115
v -153.3578 -224.1758 -360.4396
v 0.0000 -224.1758 -390.7204
v 0.0000 68.8645 -293.0403
v 115.0183 68.8645 -270.3297
v 208.0586 68.8645 -208.0586
v 270.3297 68.8645 -115.0183
v 293.0403 68.8645 0.0000
v 0.0000 -7.8297 -328.9072
v 129.0961 -7.8297 -303.4169
v 233.5241 -7.8297 -233.5241
v 303.4169 -7.8297 -129.0961
v 328.9072 -7.8297 0.0000
v 0.0000 -83.1502 -360.1954
v 141.3767 -83.1502 -332.2802
v 255.7387 -83.1502 -255.7387
v 332.2802 -83.1502 -141.3767
v 360.1954 -83.1502 0.0000
v 0.0000 -155.7234 -382.3260
v 150.0630 -155.7234 -352.6957
v 271.4515 -155.7234 -271.4515
v 352.6957 -155.7234 -150.0630
v 382.3260 -155.7234 0.0000
v 0.0000 -224.1758 -390.7204
v 153.3578 -224.1758 -360.4396
v 277.4115 -224.1758 -277.4115
v 360.4396 -224.1758 -153.3578
v 390.7204 -224.1758 0.0000
v 293.0403 68.8645 0.0000
v 270.3297 68.8645 115.0183
v 208.0586 68.8645 208.0586
v 115.0183 68.8645 270.3297
v 0.0000 68.8645 293.0403
v 328.9072 -7.8297 0.0000
v 303.4169 -7.8297 129.0961
v 233.5241 -7.8297 233.5241
v 129.0961 -7.8297 303.4169
v 0.0000 -7.8297 328.9072
v 360.1954 -83.1502 0.0000
v 332.2802 -83.1502 141.3767
v 255.7387 -83.1502 255.7387
v 141.3767 -83.1502 332.2802
v 0.0000 -83.1502 360.1954
v 382.3260 -155.7234 0.0000
v 352.6957 -155.7234 150.0630
v 271.4515 -155.7234 271.4515
v 150.0630 -155.7234 352.6957
v 0.0000 -155.7234 382.3260
v 390.7204 -224.1758 0.0000
v 360.4396 -224.1758 153.3578
v 277.4115 -224.1758 277.4115
v 153.3578 -224.1758 360.4396
v 0.0000 -224.1758 390.7204
v 0.0000 -224.1758 390.7204
v -153.3578 -224.1758 360.4396
v -277.4115 -224.1758 277.4115
v -360.4396 -224.1758 153.3578
v -390.7204 -224.1758 0.0000
v 0.0000 -282.0971 375.4579
v -147.3672 -282.0971 346.3599
v -266.5751 -282.0971 266.5751
v -346.3599 -282.0971 147.3672
v -375.4579 -282.0971 0.0000
v 0.0000 -324.9084 341.8803
v -134.1880 -324.9084 315.3846
v -242.7350 -324.9084 242.7350
v -315.3846 -324.9084 134.1880
v -341.8803 -324.9084 0.0000
v 0.0000 -353.9835 308.3028
v -121.0089 -353.9835 284.4093
v -218.8950 -353.9835 218.8950
v -284.4093 -353.9835 121.0089
v -308.3028 -353.9835 0.0000
v 0.0000 -370.6960 293.0403
v -115.0183 -370.6960 270.3297
v -208.0586 -370.6960 208.0586
v -270.3297 -370.6960 115.0183
v -293.0403 -370.6960 0.0000
v -390.7204 -224.1758 0.0000
v -360.4396 -224.1758 -153.3578
v -277.4115 -224.1758 -277.4115
v -153.3578 -224.1758 -360.4396
v 0.0000 -224.1758 -390.7204
v -375.4579 -282.0971 0.0000
v -346.3599 -282.0971 -147.3672
v -266.5751 -282.0971 -266.5751
v -147.3672 -282.0971 -346.3599
v 0.0000 -282.0971 -375.4579
v -341.8803 -324.9084 0.0000
v -315.3846 -324.9084 -134.1880
v -242.7350 -324.9084 -242.7350
v -134.1880 -324.9084 -315.3846
v 0.0000 -324.9084 -341.8803
v -308.3028 -353.9835 0.0000
v -284.4093 -353.9835 -121.0089
v -218.8950 -353.9835 -218.8950
v -121.0089 -353.9835 -284.4093
v 0.0000 -353.9835 -308.3028
v -293.0403 -370.6960 0.0000
v -270.3297 -370.6960 -115.0183
v -208.0586 -370.6960 -208.0586
v -115.0183 -370.6960 -270.3297
v 0.0000 -370.6960 -293.0403
v 0.0000 -224.1758 -390.7204
v 153.3578 -224.1758 -360.4396
v 277.4115 -224.1758 -277.4115
v 360.4396 -224.1758 -153.3578
v 390.7204 -224.1758 0.0000
v 0.0000 -282.0971 -375.4579
v 147.3672 -282.0971 -346.3599
v 266.5751 -282.0971 -266.5751
v 346.3599 -282.0971 -147.3672
v 375.4579 -282.0971 0.0000
v 0.0000 -324.9084 -341.8803
v 134.1880 -324.9084 -315.3846
v 242.7350 -324.9084 -242.7350
v 315.3846 -324.9084 -134.1880
v 341.8803 -324.9084 0.0000
v 0.0000 -353.9835 -308.3028
v 121.0089 -353.9835 -284.4093
v 218.8950 -353.9835 -218.8950
v 284.4093 -353.9835 -121.0089
v 308.3028 -353.9835 0.0000
v 0.0000 -370.6960 -293.0403
v 115.0183 -370.6960 -270.3297
v 208.0586 -370.6960 -208.0586
v 270.3297 -370.6960 -115.0183
v 293.0403 -370.6960 0.0000
v 390.7204 -224.1758 0.0000
v 360.4396 -224.1758 153.3578
v 277.4115 -224.1758 277.4115
v 153.3578 -224.1758 360.4396
v 0.0000 -224.1758 390.7204
v 375.4579 -282.0971 0.0000
v 346.3599 -282.0971 147.3672
v 266.5751 -282.0971 266.5751
v 147.3672 -282.0971 346.3599
v 0.0000 -282.0971 375.4579
v 341.8803 -324.9084 0.0000
v 315.3846 -324.9084 134.1880
v 242.7350 -324.9084 242.7350
v 134.1880 -324.9084 315.3846
v 0.0000 -324.9084 341.8803
v 308.3028 -353.9835 0.0000
v 284.4093 -353.9835 121.0089
v 218.8950 -353.9835 218.8950
v 121.0089 -353.9835 284.4093
v 0.0000 -353.9835 308.3028
v 293.0403 -370.6960 0.0000
v 270.3297 -370.6960 115.0183
v 208.0586 -370.6960 208.0586
v 115.0183 -370.6960 270.3297
v 0.0000 -370.6960 293.0403
v 0.0000 -4.3956 -312.5763
v -32.9670 2.4725 -309.5238
v -43.9560 17.5824 -302.8083
v -32.9670 32.6923 -296.0928
v 0.0000 39.5604 -293.0403
v 0.0000 -5.0824 -403.8462
v -32.9670 1.6784 -406.5648
v -43.9560 16.5522 -412.5458
v -32.9670 31.4260 -418.5268
v 0.0000 38.1868 -421.2454
v 0.0000 -9.8901 -471.3065
v -32.9670 -3.8805 -477.7930
v -43.9560 9.3407 -492.0635
v -32.9670 22.5618 -506.3339
v 0.0000 28.5714 -512.8205
v 0.0000 -22.9396 -513.1258
v -32.9670 -18.9689 -521.6632
v -43.9560 -10.2335 -540.4457
v -32.9670 -1.4981 -559.2281
v 0.0000 2.4725 -567.7656
v 0.0000 -48.3516 -527.4725
v -32.9670 -48.3516 -536.6300
v -43.9560 -48.3516 -556.7766
v -32.9670 -48.3516 -576.9231
v 0.0000 -48.3516 -586.0806
v 0.0000 39.5604 -293.0403
v 32.9670 32.6923 -296.0928
v 43.9560 17.5824 -302.8083
v 32.9670 2.4725 -309.5238
v 0.0000 -4.3956 -312.5763
v 0.0000 38.1868 -421.2454
v 32.9670 31.4260 -418.5268
v 43.9560 16.5522 -412.5458
v 32.9670 1.6784 -406.5648
v 0.0000 -5.0824 -403.8462
v 0.0000 28.5714 -512.8205
v 32.9670 22.5618 -506.3339
v 43.9560 9.3407 -492.0635
v 32.9670 -3.8805 -477.7930
v 0.0000 -9.8901 -471.3065
v 0.0000 2.4725 -567.7656
v 32.9670 -1.4981 -559.2281
v 43.9560 -10.2335 -540.4457
v 32.9670 -18.9689 -521.6632
v 0.0000 -22.9396 -513.1258
v 0.0000 -48.3516 -586.0806
v 32.9670 -48.3516 -576.9231
v 43.9560 -48.3516 -556.7766
v 32.9670 -48.3516 -536.6300
v 0.0000 -48.3516 -527.4725
v 0.0000 -48.3516 -527.4725
v -32.9670 -48.3516 -536.6300
v -43.9560 -48.3516 -556.7766
v -32.9670 -48.3516 -576.9231
v 0.0000 -48.3516 -586.0806
v 0.0000 -88.1868 -519.8413
v -32.9670 -92.0323 -528.1641
v -43.9560 -100.4922 -546.4744
v -32.9670 -108.9522 -564.7846
v 0.0000 -112.7976 -573.1074
v 0.0000 -136.2637 -495.7265
v -32.9670 -142.1303 -501.6407
v -43.9560 -155.0366 -514.6520
v -32.9670 -167.9430 -527.6633
v 0.0000 -173.8095 -533.5775
v 0.0000 -184.3407 -453.2967
v -32.9670 -191.5844 -455.3715
v -43.9560 -207.5206 -459.9359
v -32.9670 -223.4568 -464.5003
v 0.0000 -230.7005 -466.5751
v 0.0000 -224.1758 -390.7204
v -32.9670 -233.3333 -387.6679
v -43.9560 -253.4799 -380.9524
v -32.9670 -273.6264 -374.2369
v 0.0000 -282.7839 -371.1844
v 0.0000 -48.3516 -586.0806
v 32.9670 -48.3516 -576.9231
v 43.9560 -48.3516 -556.7766
v 32.9670 -48.3516 -536.6300
v 0.0000 -48.3516 -527.4725
v 0.0000 -112.7976 -573.1074
v 32.9670 -108.9522 -564.7846
v 43.9560 -100.4922 -546.4744
v 32.9670 -92.0323 -528.1641
v 0.0000 -88.1868 -519.8413
v 0.0000 -173.8095 -533.5775
v 32.9670 -167.9430 -527.6633
v 43.9560 -155.0366 -514.6520
v 32.9670 -142.1303 -501.6407
v 0.0000 -136.2637 -495.7265
v 0.0000 -230.7005 -466.5751
v 32.9670 -223.4568 -464.5003
v 43.9560 -207.5206 -459.9359
v 32.9670 -191.5844 -455.3715
v 0.0000 -184.3407 -453.2967
v 0.0000 -282.7839 -371.1844
v 32.9670 -273.6264 -374.2369
v 43.9560 -253.4799 -380.9524
v 32.9670 -233.3333 -387.6679
v 0.0000 -224.1758 -390.7204
v 0.0000 -121.6117 332.1123
v -72.5275 -146.7949 332.1123
v -96.7033 -202.1978 332.1123
v -72.5275 -257.6007 332.1123
v 0.0000 -282.7839 332.1123
v 0.0000 -100.0916 425.8242
v -65.4876 -118.7643 432.9785
v -87.3168 -159.8443 448.7179
v -65.4876 -200.9243 464.4574
v 0.0000 -219.5971 471.6117
v 0.0000 -48.3516 466.4225
v -50.0000 -59.2262 475.5800
v -66.6667 -83.1502 495.7265
v -50.0000 -107.0742 515.8730
v 0.0000 -117.9487 525.0305
v 0.0000 14.3773 488.7057
v -34.5124 10.4424 499.8665
v -46.0165 1.7857 524.4200
v -34.5124 -6.8710 548.9736
v 0.0000 -10.8059 560.1343
v 0.0000 68.8645 527.4725
v -27.4725 68.8645 545.7875
v -36.6300 68.8645 586.0806
v -27.4725 68.8645 626.3736
v 0.0000 68.8645 644.6886
v 0.0000 -282.7839 332.1123
v 72.5275 -257.6007 332.1123
v 96.7033 -202.1978 332.1123
v 72.5275 -146.7949 332.1123
v 0.0000 -121.6117 332.1123
v 0.0000 -219.5971 471.6117
v 65.4876 -200.9243 464.4574
v 87.3168 -159.8443 448.7179
v 65.4876 -118.7643 432.9785
v 0.0000 -100.0916 425.8242
v 0.0000 -117.9487 525.0305
v 50.0000 -107.0742 515.8730
v 66.6667 -83.1502 495.7265
v 50.0000 -59.2262 475.5800
v 0.0000 -48.3516 466.4225
v 0.0000 -10.8059 560.1343
v 34.5124 -6.8710 548.9736
v 46.0165 1.7857 524.4200
v 34.5124 10.4424 499.8665
v 0.0000 14.3773 488.7057
v 0.0000 68.8645 644.6886
v 27.4725 68.8645 626.3736
v 36.6300 68.8645 586.0806
v 27.4725 68.8645 545.7875
v 0.0000 68.8645 527.4725
v 0.0000 68.8645 527.4725
v -27.4725 68.8645 545.7875
v -36.6300 68.8645 586.0806
v -27.4725 68.8645 626.3736
v 0.0000 68.8645 644.6886
v 0.0000 77.1062 541.5140
v -25.7555 77.5087 561.1288
v -34.3407 78.3940 604.2811
v -25.7555 79.2793 647.4335
v 0.0000 79.6818 667.0482
v 0.0000 79.8535 551.8926
v -21.9780 80.4974 570.3030
v -29.3040 81.9139 610.8059
v -21.9780 83.3305 651.3088
v 0.0000 83.9744 669.7192
v 0.0000 77.1062 554.9451
v -18.2005 77.6696 570.5772
v -24.2674 78.9091 604.9679
v -18.2005 80.1486 639.3587
v 0.0000 80.7120 654.9908
v 0.0000 68.8645 547.0085
v -16.4835 68.8645 559.2186
v -21.9780 68.8645 586.0806
v -16.4835 68.8645 612.9426
v 0.0000 68.8645 625.1526
v 0.0000 68.8645 644.6886
v 27.4725 68.8645 626.3736
v 36.6300 68.8645 586.0806
v 27.4725 68.8645 545.7875
v 0.0000 68.8645 527.4725
v 0.0000 79.6818 667.0482
v 25.7555 79.2793 647.4335
v 34.3407 78.3940 604.2811
v 25.7555 77.5087 561.1288
v 0.0000 77.1062 541.5140
v 0.0000 83.9744 669.7192
v 21.9780 83.3305 651.3088
v 29.3040 81.9139 610.8059
v 21.9780 80.4974 570.3030
v 0.0000 79.8535 551.8926
v 0.0000 80.7120 654.9908
v 18.2005 80.1486 639.3587
v 24.2674 78.9091 604.9679
v 18.2005 77.6696 570.5772
v 0.0000 77.1062 554.9451
v 0.0000 68.8645 625.1526
v 16.4835 68.8645 612.9426
v 21.9780 68.8645 586.0806
v 16.4835 68.8645 559.2186
v 0.0000 68.8645 547.0085
v 0.0000 215.3846 0.0000
v 0.0000 215.3846 0.0000
v 0.0000 215.3846 0.0000
v 0.0000 215.3846 0.0000
v 0.0000 215.3846 0.0000
v 0.0000 205.7692 71.6685
v -28.2048 205.7692 66.1392
v -50.9512 205.7692 50.9512
v -66.1392 205.7692 28.2048
v -71.6685 205.7692 0.0000
v 0.0000 182.4176 68.3810
v -26.9061 182.4176 63.1036
v -48.6097 182.4176 48.6097
v -63.1036 182.4176 26.9061
v -68.3810 182.4176 0.0000
v 0.0000 153.5714 41.4231
v -16.2835 153.5714 38.2211
v -29.4326 153.5714 29.4326
v -38.2211 153.5714 16.2835
v -41.4231 153.5714 0.0000
v 0.0000 127.4725 42.0806
v -16.5166 127.4725 38.8193
v -29.8772 127.4725 29.8772
v -38.8193 127.4725 16.5166
v -42.0806 127.4725 0.0000
v 0.0000 215.3846 0.0000
v 0.0000 215.3846 0.0000
v 0.0000 215.3846 0.0000
v 0.0000 215.3846 0.0000
v 0.0000 215.3846 0.0000
v -71.6685 205.7692 0.0000
v -66.1392 205.7692 -28.2048
v -50.9512 205.7692 -50.9512
v -28.2048 205.7692 -66.1392
v 0.0000 205.7692 -71.6685
v -68.3810 182.4176 0.0000
v -63.1036 182.4176 -26.9061
v -48.6097 182.4176 -48.6097
v -26.9061 182.4176 -63.1036
v 0.0000 182.4176 -68.3810
v -41.4231 153.5714 0.0000
v -38.2211 153.5714 -16.2835
v -29.4326 153.5714 -29.4326
v -16.2835 153.5714 -38.2211
v 0.0000 153.5714 -41.4231
v -42.0806 127.4725 0.0000
v -38.8193 127.4725 -16.5166
v -29.8772 127.4725 -29.8772
v -16.5166 127.4725 -38.8193
v 0.0000 127.4725 -42.0806
v 0.0000 215.3846 0.0000
v 0.0000 215.3846 0.0000
v 0.0000 215.3846 0.0000
v 0.0000 215.3846 0.0000
v 0.0000 215.3846 0.0000
v 0.0000 205.7692 -71.6685
v 28.2048 205.7692 -66.1392
v 50.9512 205.7692 -50.9512
v 66.1392 205.7692 -28.2048
v 71.6685 205.7692 0.0000
v 0.0000 182.4176 -68.3810
v 26.9061 182.4176 -63.1036
v 48.6097 182.4176 -48.6097
v 63.1036 182.4176 -26.9061
v 68.3810 182.4176 0.0000
v 0.0000 153.5714 -41.4231
v 16.2835 153.5714 -38.2211
v 29.4326 153.5714 -29.4326
v 38.2211 153.5714 -16.2835
v 41.4231 153.5714 0.0000
v 0.0000 127.4725 -42.0806
v 16.5166 127.4725 -38.8193
v 29.8772 127.4725 -29.8772
v 38.8193 127.4725 -16.5166
v 42.0806 127.4725 0.0000
v 0.0000 215.3846 0.0000
v 0.0000 215.3846 0.0000
v 0.0000 215.3846 0.0000
v 0.0000 215.3846 0.0000
v 0.0000 215.3846 0.0000
v 71.6685 205.7692 0.0000
v 66.1392 205.7692 28.2048
v 50.9512 205.7692 50.9512
v 28.2048 205.7692 66.1392
v 0.0000 205.7692 71.6685
v 68.3810 182.4176 0.0000
v 63.1036 182.4176 26.9061
v 48.6097 182.4176 48.6097
v 26.9061 182.4176 63.1036
v 0.0000 182.4176 68.3810
v 41.4231 153.5714 0.0000
v 38.2211 153.5714 16.2835
v 29.4326 153.5714 29.4326
v 16.2835 153.5714 38.2211
v 0.0000 153.5714 41.4231
v 42.0806 127.4725 0.0000
v 38.8193 127.4725 16.5166
v 29.8772 127.4725 29.8772
v 16.5166 127.4725 38.8193
v 0.0000 127.4725 42.0806
v 0.0000 127.4725 42.0806
v -16.5166 127.4725 38.8193
v -29.8772 127.4725 29.8772
v -38.8193 127.4725 16.5166
v -42.0806 127.4725 0.0000
v 0.0000 110.0733 95.9963
v -37.6786 110.0733 88.5566
v -68.1574 110.0733 68.1574
v -88.5566 110.0733 37.6786
v -95.9963 110.0733 0.0000
v 0.0000 98.1685 173.5824
v -68.1311 98.1685 160.1298
v -123.2435 98.1685 123.2435
v -160.1298 98.1685 68.1311
v -173.5824 98.1685 0.0000
v 0.0000 86.2637 243.2784
v -95.4868 86.2637 224.4243
v -172.7277 86.2637 172.7277
v -224.4243 86.2637 95.4868
v -243.2784 86.2637 0.0000
v 0.0000 68.8645 273.5238
v -107.3581 68.8645 252.3257
v -194.2019 68.8645 194.2019
v -252.3257 68.8645 107.3581
v -273.5238 68.8645 0.0000
v -42.0806 127.4725 0.0000
v -38.8193 127.4725 -16.5166
v -29.8772 127.4725 -29.8772
v -16.5166 127.4725 -38.8193
v 0.0000 127.4725 -42.0806
v -95.9963 110.0733 0.0000
v -88.5566 110.0733 -37.6786
v -68.1574 110.0733 -68.1574
v -37.6786 110.0733 -88.5566
v 0.0000 110.0733 -95.9963
v -173.5824 98.1685 0.0000
v -160.1298 98.1685 -68.1311
v -123.2435 98.1685 -123.2435
v -68.1311 98.1685 -160.1298
v 0.0000 98.1685 -173.5824
v -243.2784 86.2637 0.0000
v -224.4243 86.2637 -95.4868
v -172.7277 86.2637 -172.7277
v -95.4868 86.2637 -224.4243
v 0.0000 86.2637 -243.2784
v -273.5238 68.8645 0.0000
v -252.3257 68.8645 -107.3581
v -194.2019 68.8645 -194.2019
v -107.3581 68.8645 -252.3257
v 0.0000 68.8645 -273.5238
v 0.0000 127.4725 -42.0806
v 16.5166 127.4725 -38.8193
v 29.8772 127.4725 -29.8772
v 38.8193 127.4725 -16.5166
v 42.0806 127.4725 0.0000
v 0.0000 110.0733 -95.9963
v 37.6786 110.0733 -88.5566
v 68.1574 110.0733 -68.1574
v 88.5566 110.0733 -37.6786
v 95.9963 110.0733 0.0000
v 0.0000 98.1685 -173.5824
v 68.1311 98.1685 -160.1298
v 123.2435 98.1685 -123.2435
v 160.1298 98.1685 -68.1311
v 173.5824 98.1685 0.0000
v 0.0000 86.2637 -243.2784
v 95.4868 86.2637 -224.4243
v 172.7277 86.2637 -172.7277
v 224.4243 86.2637 -95.4868
v 243.2784 86.2637 0.0000
v 0.0000 68.8645 -273.5238
v 107.3581 68.8645 -252.3257
v 194.2019 68.8645 -194.2019
v 252.3257 68.8645 -107.3581
v 273.5238 68.8645 0.0000
v 42.0806 127.4725 0.0000
v 38.8193 127.4725 16.5166
v 29.8772 127.4725 29.8772
v 16.5166 127.4725 38.8193
v 0.0000 127.4725 42.0806
v 95.9963 110.0733 0.0000
v 88.5566 110.0733 37.6786
v 68.1574 110.0733 68.1574
v 37.6786 110.0733 88.5566
v 0.0000 110.0733 95.9963
v 173.5824 98.1685 0.0000
v 160.1298 98.1685 68.1311
v 123.2435 98.1685 123.2435
v 68.1311 98.1685 160.1298
v 0.0000 98.1685 173.5824
v 243.2784 86.2637 0.0000
v 224.4243 86.2637 95.4868
v 172.7277 86.2637 172.7277
v 95.4868 86.2637 224.4243
v 0.0000 86.2637 243.2784
v 273.5238 68.8645 0.0000
v 252.3257 68.8645 107.3581
v 194.2019 68.8645 194.2019
v 107.3581 68.8645 252.3257
v 0.0000 68.8645 273.5238
v 0.0000 -400.0000 0.0000
v 0.0000 -400.0000 0.0000
v 0.0000 -400.0000 0.0000
v 0.0000 -400.0000 0.0000
v 0.0000 -400.0000 0.0000
v 0.0000 -397.4817 163.2326
v 64.0688 -397.4817 150.5821
v 115.8951 -397.4817 115.8951
v 150.5821 -397.4817 64.0688
v 163.2326 -397.4817 0.0000
v 0.0000 -390.8425 250.9158
v 98.4844 -390.8425 231.4698
v 178.1502 -390.8425 178.1502
v 231.4698 -390.8425 98.4844
v 250.9158 -390.8425 0.0000
v 0.0000 -381.4560 286.4011
v 112.4124 -381.4560 264.2050
v 203.3448 -381.4560 203.3448
v 264.2050 -381.4560 112.4124
v 286.4011 -381.4560 0.0000
v 0.0000 -370.6960 293.0403
v 115.0183 -370.6960 270.3297
v 208.0586 -370.6960 208.0586
v 270.3297 -370.6960 115.0183
v 293.0403 -370.6960 0.0000
v 0.0000 -400.0000 0.0000
v 0.0000 -400.0000 0.0000
v 0.0000 -400.0000 0.0000
v 0.0000 -400.0000 0.0000
v 0.0000 -400.0000 0.0000
v 163.2326 -397.4817 0.0000
v 150.5821 -397.4817 -64.0688
v 115.8951 -397.4817 -115.8951
v 64.0688 -397.4817 -150.5821
v 0.0000 -397.4817 -163.2326
v 250.9158 -390.8425 0.0000
v 231.4698 -390.8425 -98.4844
v 178.1502 -390.8425 -178.1502
v 98.4844 -390.8425 -231.4698
v 0.0000 -390.8425 -250.9158
v 286.4011 -381.4560 0.0000
v 264.2050 -381.4560 -112.4124
v 203.3448 -381.4560 -203.3448
v 112.4124 -381.4560 -264.2050
v 0.0000 -381.4560 -286.4011
v 293.0403 -370.6960 0.0000
v 270.3297 -370.6960 -115.0183
v 208.0586 -370.6960 -208.0586
v 115.0183 -370.6960 -270.3297
v 0.0000 -370.6960 -293.0403
v 0.0000 -400.0000 0.0000
v 0.0000 -400.0000 0.0000
v 0.0000 -400.0000 0.0000
v 0.0000 -400.0000 0.0000
v 0.0000 -400.0000 0.0000
v 0.0000 -397.4817 -163.2326
v -64.0688 -397.4817 -150.5821
v -115.8951 -397.4817 -115.8951
v -150.5821 -397.4817 -64.0688
v -163.2326 -397.4817 0.0000
v 0.0000 -390.8425 -250.9158
v -98.4844 -390.8425 -231.4698
v -178.1502 -390.8425 -178.1502
v -231.4698 -390.8425 -98.4844
v -250.9158 -390.8425 0.0000
v 0.0000 -381.4560 -286.4011
v -112.4124 -381.4560 -264.2050
v -203.3448 -381.4560 -203.3448
v -264.2050 -381.4560 -112.4124
v -286.4011 -381.4560 0.0000
v 0.0000 -370.6960 -293.0403
v -115.0183 -370.6960 -270.3297
v -208.0586 -370.6960 -208.0586
v -270.3297 -370.6960 -115.0183
v -293.0403 -370.6960 0.0000
v 0.0000 -400.0000 0.0000
v 0.0000 -400.0000 0.0000
v 0.0000 -400.0000 0.0000
v 0.0000 -400.0000 0.0000
v 0.0000 -400.0000 0.0000
v -163.2326 -397.4817 0.0000
v -150.5821 -397.4817 64.0688
v -115.8951 -397.4817 115.8951
v -64.0688 -397.4817 150.5821
v 0.0000 -397.4817 163.2326
v -250.9158 -390.8425 0.0000
v -231.4698 -390.8425 98.4844
v -178.1502 -390.8425 178.1502
v -98.4844 -390.8425 231.4698
v 0.0000 -390.8425 250.9158
v -286.4011 -381.4560 0.0000
v -264.2050 -381.4560 112.4124
v -203.3448 -381.4560 203.3448
v -112.4124 -381.4560 264.2050
v 0.0000 -381.4560 286.4011
v -293.0403 -370.6960 0.0000
v -270.3297 -370.6960 115.0183
v -208.0586 -370.6960 208.0586
v -115.0183 -370.6960 270.3297
v 0.0000 -370.6960 293.0403
v 32.0000 85.9744 677.7192
v 28.0000 81.9744 681.7192
v 32.0000 81.9744 677.7192
v -28.0000 85.9744 677.7192
v -32.0000 81.9744 681.7192
v -28.0000 81.9744 677.7192
v 140.0000 -30.0000 -686.0806
v 80.0000 -90.0000 -606.0806
v 140.0000 -90.0000 -686.0806
v -80.0000 -30.0000 -686.0806
v -140.0000 -90.0000 -606.0806
v -80.0000 -90.0000 -686.0806
v 390.0000 -220.0000 85.0000
v 380.0000 -230.0000 95.0000
v 390.0000 -230.0000 85.0000
v -380.0000 -220.0000 85.0000
v -390.0000 -230.0000 95.0000
v -380.0000 -230.0000 85.0000
v 390.0000 -220.0000 -95.0000
v 380.0000 -230.0000 -85.0000
v 390.0000 -230.0000 -95.0000
v -380.0000 -220.0000 -95.0000
v -390.0000 -230.0000 -85.0000
v -380.0000 -230.0000 -95.0000
v 5.0000 225.3846 -5.0000
v -5.0000 215.3846 5.0000
v 5.0000 215.3846 -5.0000
vt 1.00000 0.00000
vt 0.75000 0.00000
vt 0.50000 0.00000
vt 0.25000 0.00000
vt 0.00000 0.00000
vt 1.00000 0.25000
vt 0.75000 0.25000
vt 0.50000 0.25000
vt 0.25000 0.25000
vt 0.00000 0.25000
vt 1.00000 0.50000
vt 0.75000 0.50000
vt 0.50000 0.50000
vt 0.25000 0.50000
vt 0.00000 0.50000
vt 1.00000 0.75000
vt 0.75000 0.75000
vt 0.50000 0.75000
vt 0.25000 0.75000
vt 0.00000 0.75000
vt 1.00000 1.00000
vt 0.75000 1.00000
vt 0.50000 1.00000
vt 0.25000 1.00000
vt 0.00000 1.00000
vt 1.00000 0.00000
vt 0.75000 0.00000
vt 0.50000 0.00000
vt 0.25000 0.00000
vt 0.00000 0.00000
vt 1.00000 0.25000
vt 0.75000 0.25000
vt 0.50000 0.25000
vt 0.25000 0.25000
vt 0.00000 0.25000
vt 1.00000 0.50000
vt 0.75000 0.50000
vt 0.50000 0.50000
vt 0.25000 0.50000
vt 0.00000 0.50000
vt 1.00000 0.75000
vt 0.75000 0.75000
vt 0.50000 0.75000
vt 0.25000 0.75000
vt 0.00000 0.75000
vt 1.00000 1.00000
vt 0.75000 1.00000
vt 0.50000 1.00000
vt 0.25000 1.00000
vt 0.00000 1.00000
vt 1.00000 0.00000
vt 0.75000 0.00000
vt 0.50000 0.00000
vt 0.25000 0.00000
vt 0.00000 0.00000
vt 1.00000 0.25000
vt 0.75000 0.25000
vt 0.50000 0.25000
vt 0.25000 0.25000
vt 0.00000 0.25000
vt 1.00000 0.50000
vt 0.75000 0.50000
vt 0.50000 0.50000
vt 0.25000 0.50000
vt 0.00000 0.50000
vt 1.00000 0.75000
vt 0.75000 0.75000
vt 0.50000 0.75000
vt 0.25000 0.75000
vt 0.00000 0.75000
vt 1.00000 1.00000
vt 0.75000 1.00000
vt 0.50000 1.00000
vt 0.25000 1.00000
vt 0.00000 1.00000
vt 1.00000 0.00000
vt 0.75000 0.00000
vt 0.50000 0.00000
vt 0.25000 0.00000
vt 0.00000 0.00000
vt 1.00000 0.25000
vt 0.75000 0.25000
vt 0.50000 0.25000
vt 0.25000 0.25000
vt 0.00000 0.25000
vt 1.00000 0.50000
vt 0.75000 0.50000
vt 0.50000 0.50000
vt 0.25000 0.50000
vt 0.00000 0.50000
vt 1.00000 0.75000
vt 0.75000 0.75000
vt 0.50000 0.75000
vt 0.25000 0.75000
vt 0.00000 0.75000
vt 1.00000 1.00000
vt 0.75000 1.00000
vt 0.50000 1.00000
vt 0.25000 1.00000
vt 0.00000 1.00000
vt 1.00000 0.00000
vt 0.75000 0.00000
vt 0.50000 0.00000
vt 0.25000 0.00000
vt 0.00000 0.00000
vt 1.00000 0.25000
vt 0.75000 0.25000
vt 0.50000 0.25000
vt 0.25000 0.25000
vt 0.00000 0.25000
vt 1.00000 0.50000
vt 0.75000 0.50000
vt 0.50000 0.50000
vt 0.25000 0.50000
vt 0.00000 0.50000
vt 1.00000 0.75000
vt 0.75000 0.75000
vt 0.50000 0.75000
vt 0.25000 0.75000
vt 0.00000 0.75000
vt 1.00000 1.00000
vt 0.75000 1.00000
vt 0.50000 1.00000
vt 0.25000 1.00000
vt 0.00000 1.00000
vt 1.00000 0.00000
vt 0.75000 0.00000
vt 0.50000 0.00000
vt 0.25000 0.00000
vt 0.00000 0.00000
vt 1.00000 0.25000
vt 0.75000 0.25000
vt 0.50000 0.25000
vt 0.25000 0.25000
vt 0.00000 0.25000
vt 1.00000 0.50000
vt 0.75000 0.50000
vt 0.50000 0.50000
vt 0.25000 0.50000
vt 0.00000 0.50000
vt 1.00000 0.75000
vt 0.75000 0.75000
vt 0.50000 0.75000
vt 0.25000 0.75000
vt 0.00000 0.75000
vt 1.00000 1.00000
vt 0.75000 1.00000
vt 0.50000 1.00000
vt 0.25000 1.00000
vt 0.00000 1.00000
vt 1.00000 0.00000
vt 0.75000 0.00000
vt 0.50000 0.00000
vt 0.25000 0.00000
vt 0.00000 0.00000
vt 1.00000 0.25000
vt 0.75000 0.25000
vt 0.50000 0.25000
vt 0.25000 0.25000
vt 0.00000 0.25000
vt 1.00000 0.50000
vt 0.75000 0.50000
vt 0.50000 0.50000
vt 0.25000 0.50000
vt 0.00000 0.50000
vt 1.00000 0.75000
vt 0.75000 0.75000
vt 0.50000 0.75000
vt 0.25000 0.75000
vt 0.00000 0.75000
vt 1.00000 1.00000
vt 0.75000 1.00000
vt 0.50000 1.00000
vt 0.25000 1.00000
vt 0.00000 1.00000
vt 1.00000 0.00000
vt 0.75000 0.00000
vt 0.50000 0.00000
vt 0.25000 0.00000
vt 0.00000 0.00000
vt 1.00000 0.25000
vt 0.75000 0.25000
vt 0.50000 0.25000
vt 0.25000 0.25000
vt 0.00000 0.25000
vt 1.00000 0.50000
vt 0.75000 0.50000
vt 0.50000 0.50000
vt 0.25000 0.50000
vt 0.00000 0.50000
vt 1.00000 0.75000
vt 0.75000 0.75000
vt 0.50000 0.75000
vt 0.25000 0.75000
vt 0.00000 0.75000
vt 1.00000 1.00000
vt 0.75000 1.00000
vt 0.50000 1.00000
vt 0.25000 1.00000
vt 0.00000 1.00000
vt 1.00000 0.00000
vt 0.75000 0.00000
vt 0.50000 0.00000
vt 0.25000 0.00000
vt 0.00000 0.00000
vt 1.00000 0.25000
vt 0.75000 0.25000
vt 0.50000 0.25000
vt 0.25000 0.25000
vt 0.00000 0.25000
vt 1.00000 0.50000
vt 0.75000 0.50000
vt 0.50000 0.50000
vt 0.25000 0.50000
vt 0.00000 0.50000
vt 1.00000 0.75000
vt 0.75000 0.75000
vt 0.50000 0.75000
vt 0.25000 0.75000
vt 0.00000 0.75000
vt 1.00000 1.00000
vt 0.75000 1.00000
vt 0.50000 1.00000
vt 0.25000 1.00000
vt 0.00000 1.00000
vt 1.00000 0.00000
vt 0.75000 0.00000
vt 0.50000 0.00000
vt 0.25000 0.00000
vt 0.00000 0.00000
vt 1.00000 0.25000
vt 0.75000 0.25000
vt 0.50000 0.25000
vt 0.25000 0.25000
vt 0.00000 0.25000
vt 1.00000 0.50000
vt 0.75000 0.50000
vt 0.50000 0.50000
vt 0.25000 0.50000
vt 0.00000 0.50000
vt 1.00000 0.75000
vt 0.75000 0.75000
vt 0.50000 0.75000
vt 0.25000 0.75000
vt 0.00000 0.75000
vt 1.00000 1.00000
vt 0.75000 1.00000
vt 0.50000 1.00000
vt 0.25000 1.00000
vt 0.00000 1.00000
vt 1.00000 0.00000
vt 0.75000 0.00000
vt 0.50000 0.00000
vt 0.25000 0.00000
vt 0.00000 0.00000
vt 1.00000 0.25000
vt 0.75000 0.25000
vt 0.50000 0.25000
vt 0.25000 0.25000
vt 0.00000 0.25000
vt 1.00000 0.50000
vt 0.75000 0.50000
vt 0.50000 0.50000
vt 0.25000 0.50000
vt 0.00000 0.50000
vt 1.00000 0.75000
vt 0.75000 0.75000
vt 0.50000 0.75000
vt 0.25000 0.75000
vt 0.00000 0.75000
vt 1.00000 1.00000
vt 0.75000 1.00000
vt 0.50000 1.00000
vt 0.25000 1.00000
vt 0.00000 1.00000
vt 1.00000 0.00000
vt 0.75000 0.00000
vt 0.50000 0.00000
vt 0.25000 0.00000
vt 0.00000 0.00000
vt 1.00000 0.25000
vt 0.75000 0.25000
vt 0.50000 0.25000
vt 0.25000 0.25000
vt 0.00000 0.25000
vt 1.00000 0.50000
vt 0.75000 0.50000
vt 0.50000 0.50000
vt 0.25000 0.50000
vt 0.00000 0.50000
vt 1.00000 0.75000
vt 0.75000 0.75000
vt 0.50000 0.75000
vt 0.25000 0.75000
vt 0.00000 0.75000
vt 1.00000 1.00000
vt 0.75000 1.00000
vt 0.50000 1.00000
vt 0.25000 1.00000
vt 0.00000 1.00000
vt 1.00000 0.00000
vt 0.75000 0.00000
vt 0.50000 0.00000
vt 0.25000 0.00000
vt 0.00000 0.00000
vt 1.00000 0.25000
vt 0.75000 0.25000
vt 0.50000 0.25000
vt 0.25000 0.25000
vt 0.00000 0.25000
vt 1.00000 0.50000
vt 0.75000 0.50000
vt 0.50000 0.50000
vt 0.25000 0.50000
vt 0.00000 0.50000
vt 1.00000 0.75000
vt 0.75000 0.75000
vt 0.50000 0.75000
vt 0.25000 0.75000
vt 0.00000 0.75000
vt 1.00000 1.00000
vt 0.75000 1.00000
vt 0.50000 1.00000
vt 0.25000 1.00000
vt 0.00000 1.00000
vt 1.00000 0.00000
vt 0.75000 0.00000
vt 0.50000 0.00000
vt 0.25000 0.00000
vt 0.00000 0.00000
vt 1.00000 0.25000
vt 0.75000 0.25000
vt 0.50000 0.25000
vt 0.25000 0.25000
vt 0.00000 0.25000
vt 1.00000 0.50000
vt 0.75000 0.50000
vt 0.50000 0.50000
vt 0.25000 0.50000
vt 0.00000 0.50000
vt 1.00000 0.75000
vt 0.75000 0.75000
vt 0.50000 0.75000
vt 0.25000 0.75000
vt 0.00000 0.75000
vt 1.00000 1.00000
vt 0.75000 1.00000
vt 0.50000 1.00000
vt 0.25000 1.00000
vt 0.00000 1.00000
vt 1.00000 0.00000
vt 0.75000 0.00000
vt 0.50000 0.00000
vt 0.25000 0.00000
vt 0.00000 0.00000
vt 1.00000 0.25000
vt 0.75000 0.25000
vt 0.50000 0.25000
vt 0.25000 0.25000
vt 0.00000 0.25000
vt 1.00000 0.50000
vt 0.75000 0.50000
vt 0.50000 0.50000
vt 0.25000 0.50000
vt 0.00000 0.50000
vt 1.00000 0.75000
vt 0.75000 0.75000
vt 0.50000 0.75000
vt 0.25000 0.75000
vt 0.00000 0.75000
vt 1.00000 1.00000
vt 0.75000 1.00000
vt 0.50000 1.00000
vt 0.25000 1.00000
vt 0.00000 1.00000
vt 1.00000 0.00000
vt 0.75000 0.00000
vt 0.50000 0.00000
vt 0.25000 0.00000
vt 0.00000 0.00000
vt 1.00000 0.25000
vt 0.75000 0.25000
vt 0.50000 0.25000
vt 0.25000 0.25000
vt 0.00000 0.25000
vt 1.00000 0.50000
vt 0.75000 0.50000
vt 0.50000 0.50000
vt 0.25000 0.50000
vt 0.00000 0.50000
vt 1.00000 0.75000
vt 0.75000 0.75000
vt 0.50000 0.75000
vt 0.25000 0.75000
vt 0.00000 0.75000
vt 1.00000 1.00000
vt 0.75000 1.00000
vt 0.50000 1.00000
vt 0.25000 1.00000
vt 0.00000 1.00000
vt 1.00000 0.00000
vt 0.75000 0.00000
vt 0.50000 0.00000
vt 0.25000 0.00000
vt 0.00000 0.00000
vt 1.00000 0.25000
vt 0.75000 0.25000
vt 0.50000 0.25000
vt 0.25000 0.25000
vt 0.00000 0.25000
vt 1.00000 0.50000
vt 0.75000 0.50000
vt 0.50000 0.50000
vt 0.25000 0.50000
vt 0.00000 0.50000
vt 1.00000 0.75000
vt 0.75000 0.75000
vt 0.50000 0.75000
vt 0.25000 0.75000
vt 0.00000 0.75000
vt 1.00000 1.00000
vt 0.75000 1.00000
vt 0.50000 1.00000
vt 0.25000 1.00000
vt 0.00000 1.00000
vt 1.00000 0.00000
vt 0.75000 0.00000
vt 0.50000 0.00000
vt 0.25000 0.00000
vt 0.00000 0.00000
vt 1.00000 0.25000
vt 0.75000 0.25000
vt 0.50000 0.25000
vt 0.25000 0.25000
vt 0.00000 0.25000
vt 1.00000 0.50000
vt 0.75000 0.50000
vt 0.50000 0.50000
vt 0.25000 0.50000
vt 0.00000 0.50000
vt 1.00000 0.75000
vt 0.75000 0.75000
vt 0.50000 0.75000
vt 0.25000 0.75000
vt 0.00000 0.75000
vt 1.00000 1.00000
vt 0.75000 1.00000
vt 0.50000 1.00000
vt 0.25000 1.00000
vt 0.00000 1.00000
vt 1.00000 0.00000
vt 0.75000 0.00000
vt 0.50000 0.00000
vt 0.25000 0.00000
vt 0.00000 0.00000
vt 1.00000 0.25000
vt 0.75000 0.25000
vt 0.50000 0.25000
vt 0.25000 0.25000
vt 0.00000 0.25000
vt 1.00000 0.50000
vt 0.75000 0.50000
vt 0.50000 0.50000
vt 0.25000 0.50000
vt 0.00000 0.50000
vt 1.00000 0.75000
vt 0.75000 0.75000
vt 0.50000 0.75000
vt 0.25000 0.75000
vt 0.00000 0.75000
vt 1.00000 1.00000
vt 0.75000 1.00000
vt 0.50000 1.00000
vt 0.25000 1.00000
vt 0.00000 1.00000
vt 1.00000 0.00000
vt 0.75000 0.00000
vt 0.50000 0.00000
vt 0.25000 0.00000
vt 0.00000 0.00000
vt 1.00000 0.25000
vt 0.75000 0.25000
vt 0.50000 0.25000
vt 0.25000 0.25000
vt 0.00000 0.25000
vt 1.00000 0.50000
vt 0.75000 0.50000
vt 0.50000 0.50000
vt 0.25000 0.50000
vt 0.00000 0.50000
vt 1.00000 0.75000
vt 0.75000 0.75000
vt 0.50000 0.75000
vt 0.25000 0.75000
vt 0.00000 0.75000
vt 1.00000 1.00000
vt 0.75000 1.00000
vt 0.50000 1.00000
vt 0.25000 1.00000
vt 0.00000 1.00000
vt 1.00000 0.00000
vt 0.75000 0.00000
vt 0.50000 0.00000
vt 0.25000 0.00000
vt 0.00000 0.00000
vt 1.00000 0.25000
vt 0.75000 0.25000
vt 0.50000 0.25000
vt 0.25000 0.25000
vt 0.00000 0.25000
vt 1.00000 0.50000
vt 0.75000 0.50000
vt 0.50000 0.50000
vt 0.25000 0.50000
vt 0.00000 0.50000
vt 1.00000 0.75000
vt 0.75000 0.75000
vt 0.50000 0.75000
vt 0.25000 0.75000
vt 0.00000 0.75000
vt 1.00000 1.00000
vt 0.75000 1.00000
vt 0.50000 1.00000
vt 0.25000 1.00000
vt 0.00000 1.00000
vt 1.00000 0.00000
vt 0.75000 0.00000
vt 0.50000 0.00000
vt 0.25000 0.00000
vt 0.00000 0.00000
vt 1.00000 0.25000
vt 0.75000 0.25000
vt 0.50000 0.25000
vt 0.25000 0.25000
vt 0.00000 0.25000
vt 1.00000 0.50000
vt 0.75000 0.50000
vt 0.50000 0.50000
vt 0.25000 0.50000
vt 0.00000 0.50000
vt 1.00000 0.75000
vt 0.75000 0.75000
vt 0.50000 0.75000
vt 0.25000 0.75000
vt 0.00000 0.75000
vt 1.00000 1.00000
vt 0.75000 1.00000
vt 0.50000 1.00000
vt 0.25000 1.00000
vt 0.00000 1.00000
vt 1.00000 0.00000
vt 0.75000 0.00000
vt 0.50000 0.00000
vt 0.25000 0.00000
vt 0.00000 0.00000
vt 1.00000 0.25000
vt 0.75000 0.25000
vt 0.50000 0.25000
vt 0.25000 0.25000
vt 0.00000 0.25000
vt 1.00000 0.50000
vt 0.75000 0.50000
vt 0.50000 0.50000
vt 0.25000 0.50000
vt 0.00000 0.50000
vt 1.00000 0.75000
vt 0.75000 0.75000
vt 0.50000 0.75000
vt 0.25000 0.75000
vt 0.00000 0.75000
vt 1.00000 1.00000
vt 0.75000 1.00000
vt 0.50000 1.00000
vt 0.25000 1.00000
vt 0.00000 1.00000
vt 1.00000 0.00000
vt 0.75000 0.00000
vt 0.50000 0.00000
vt 0.25000 0.00000
vt 0.00000 0.00000
vt 1.00000 0.25000
vt 0.75000 0.25000
vt 0.50000 0.25000
vt 0.25000 0.25000
vt 0.00000 0.25000
vt 1.00000 0.50000
vt 0.75000 0.50000
vt 0.50000 0.50000
vt 0.25000 0.50000
vt 0.00000 0.50000
vt 1.00000 0.75000
vt 0.75000 0.75000
vt 0.50000 0.75000
vt 0.25000 0.75000
vt 0.00000 0.75000
vt 1.00000 1.00000
vt 0.75000 1.00000
vt 0.50000 1.00000
vt 0.25000 1.00000
vt 0.00000 1.00000
vt 1.00000 0.00000
vt 0.75000 0.00000
vt 0.50000 0.00000
vt 0.25000 0.00000
vt 0.00000 0.00000
vt 1.00000 0.25000
vt 0.75000 0.25000
vt 0.50000 0.25000
vt 0.25000 0.25000
vt 0.00000 0.25000
vt 1.00000 0.50000
vt 0.75000 0.50000
vt 0.50000 0.50000
vt 0.25000 0.50000
vt 0.00000 0.50000
vt 1.00000 0.75000
vt 0.75000 0.75000
vt 0.50000 0.75000
vt 0.25000 0.75000
vt 0.00000 0.75000
vt 1.00000 1.00000
vt 0.75000 1.00000
vt 0.50000 1.00000
vt 0.25000 1.00000
vt 0.00000 1.00000
vt 1.00000 0.00000
vt 0.75000 0.00000
vt 0.50000 0.00000
vt 0.25000 0.00000
vt 0.00000 0.00000
vt 1.00000 0.25000
vt 0.75000 0.25000
vt 0.50000 0.25000
vt 0.25000 0.25000
vt 0.00000 0.25000
vt 1.00000 0.50000
vt 0.75000 0.50000
vt 0.50000 0.50000
vt 0.25000 0.50000
vt 0.00000 0.50000
vt 1.00000 0.75000
vt 0.75000 0.75000
vt 0.50000 0.75000
vt 0.25000 0.75000
vt 0.00000 0.75000
vt 1.00000 1.00000
vt 0.75000 1.00000
vt 0.50000 1.00000
vt 0.25000 1.00000
vt 0.00000 1.00000
vt 1.00000 0.00000
vt 0.75000 0.00000
vt 0.50000 0.00000
vt 0.25000 0.00000
vt 0.00000 0.00000
vt 1.00000 0.25000
vt 0.75000 0.25000
vt 0.50000 0.25000
vt 0.25000 0.25000
vt 0.00000 0.25000
vt 1.00000 0.50000
vt 0.75000 0.50000
vt 0.50000 0.50000
vt 0.25000 0.50000
vt 0.00000 0.50000
vt 1.00000 0.75000
vt 0.75000 0.75000
vt 0.50000 0.75000
vt 0.25000 0.75000
vt 0.00000 0.75000
vt 1.00000 1.00000
vt 0.75000 1.00000
vt 0.50000 1.00000
vt 0.25000 1.00000
vt 0.00000 1.00000
vt 1.00000 0.00000
vt 0.75000 0.00000
vt 0.50000 0.00000
vt 0.25000 0.00000
vt 0.00000 0.00000
vt 1.00000 0.25000
vt 0.75000 0.25000
vt 0.50000 0.25000
vt 0.25000 0.25000
vt 0.00000 0.25000
vt 1.00000 0.50000
vt 0.75000 0.50000
vt 0.50000 0.50000
vt 0.25000 0.50000
vt 0.00000 0.50000
vt 1.00000 0.75000
vt 0.75000 0.75000
vt 0.50000 0.75000
vt 0.25000 0.75000
vt 0.00000 0.75000
vt 1.00000 1.00000
vt 0.75000 1.00000
vt 0.50000 1.00000
vt 0.25000 1.00000
vt 0.00000 1.00000
vt 1.00000 0.00000
vt 0.75000 0.00000
vt 0.50000 0.00000
vt 0.25000 0.00000
vt 0.00000 0.00000
vt 1.00000 0.25000
vt 0.75000 0.25000
vt 0.50000 0.25000
vt 0.25000 0.25000
vt 0.00000 0.25000
vt 1.00000 0.50000
vt 0.75000 0.50000
vt 0.50000 0.50000
vt 0.25000 0.50000
vt 0.00000 0.50000
vt 1.00000 0.75000
vt 0.75000 0.75000
vt 0.50000 0.75000
vt 0.25000 0.75000
vt 0.00000 0.75000
vt 1.00000 1.00000
vt 0.75000 1.00000
vt 0.50000 1.00000
vt 0.25000 1.00000
vt 0.00000 1.00000
vt 1.00000 0.00000
vt 0.75000 0.00000
vt 0.50000 0.00000
vt 0.25000 0.00000
vt 0.00000 0.00000
vt 1.00000 0.25000
vt 0.75000 0.25000
vt 0.50000 0.25000
vt 0.25000 0.25000
vt 0.00000 0.25000
vt 1.00000 0.50000
vt 0.75000 0.50000
vt 0.50000 0.50000
vt 0.25000 0.50000
vt 0.00000 0.50000
vt 1.00000 0.75000
vt 0.75000 0.75000
vt 0.50000 0.75000
vt 0.25000 0.75000
vt 0.00000 0.75000
vt 1.00000 1.00000
vt 0.75000 1.00000
vt 0.50000 1.00000
vt 0.25000 1.00000
vt 0.00000 1.00000
vt 1.00000 0.00000
vt 0.75000 0.00000
vt 0.50000 0.00000
vt 0.25000 0.00000
vt 0.00000 0.00000
vt 1.00000 0.25000
vt 0.75000 0.25000
vt 0.50000 0.25000
vt 0.25000 0.25000
vt 0.00000 0.25000
vt 1.00000 0.50000
vt 0.75000 0.50000
vt 0.50000 0.50000
vt 0.25000 0.50000
vt 0.00000 0.50000
vt 1.00000 0.75000
vt 0.75000 0.75000
vt 0.50000 0.75000
vt 0.25000 0.75000
vt 0.00000 0.75000
vt 1.00000 1.00000
vt 0.75000 1.00000
vt 0.50000 1.00000
vt 0.25000 1.00000
vt 0.00000 1.00000
vt 1.00000 0.00000
vt 0.75000 0.00000
vt 0.50000 0.00000
vt 0.25000 0.00000
vt 0.00000 0.00000
vt 1.00000 0.25000
vt 0.75000 0.25000
vt 0.50000 0.25000
vt 0.25000 0.25000
vt 0.00000 0.25000
vt 1.00000 0.50000
vt 0.75000 0.50000
vt 0.50000 0.50000
vt 0.25000 0.50000
vt 0.00000 0.50000
vt 1.00000 0.75000
vt 0.75000 0.75000
vt 0.50000 0.75000
vt 0.25000 0.75000
vt 0.00000 0.75000
vt 1.00000 1.00000
vt 0.75000 1.00000
vt 0.50000 1.00000
vt 0.25000 1.00000
vt 0.00000 1.00000
vn -0.00000 -0.42993 -0.90286
vn 0.34709 -0.43081 -0.83302
vn 0.63794 -0.43137 -0.63794
vn 0.83302 -0.43081 -0.34709
vn 0.90286 -0.42993 0.00000
vn 0.00000 0.09481 -0.99550
vn 0.38287 0.09504 -0.91890
vn 0.70390 0.09519 -0.70390
vn 0.91890 0.09504 -0.38287
vn 0.99550 0.09481 0.00000
vn 0.00000 1.00000 -0.00000
vn 0.00000 1.00000 -0.00000
vn 0.00000 1.00000 -0.00000
vn 0.00000 1.00000 -0.00000
vn 0.00000 1.00000 0.00000
vn 0.00000 0.72336 0.69048
vn -0.26522 0.72422 0.63653
vn -0.48720 0.72476 0.48720
vn -0.63653 0.72422 0.26522
vn -0.69048 0.72336 0.00000
vn 0.00000 0.42993 0.90286
vn -0.34709 0.43081 0.83302
vn -0.63794 0.43137 0.63794
vn -0.83302 0.43081 0.34709
vn -0.90286 0.42993 0.00000
vn 0.90286 -0.42993 0.00000
vn 0.83302 -0.43081 0.34709
vn 0.63794 -0.43137 0.63794
vn 0.34709 -0.43081 0.83302
vn 0.00000 -0.42993 0.90286
vn 0.99550 0.09481 0.00000
vn 0.91890 0.09504 0.38287
vn 0.70390 0.09519 0.70390
vn 0.38287 0.09504 0.91890
vn -0.00000 0.09481 0.99550
vn 0.00000 1.00000 0.00000
vn 0.00000 1.00000 0.00000
vn 0.00000 1.00000 0.00000
vn 0.00000 1.00000 0.00000
vn -0.00000 1.00000 0.00000
vn -0.69048 0.72336 0.00000
vn -0.63653 0.72422 -0.26522
vn -0.48720 0.72476 -0.48720
vn -0.26522 0.72422 -0.63653
vn 0.00000 0.72336 -0.69048
vn -0.90286 0.42993 0.00000
vn -0.83302 0.43081 -0.34709
vn -0.63794 0.43137 -0.63794
vn -0.34709 0.43081 -0.83302
vn 0.00000 0.42993 -0.90286
vn 0.00000 -0.42993 0.90286
vn -0.34709 -0.43081 0.83302
vn -0.63794 -0.43137 0.63794
vn -0.83302 -0.43081 0.34709
vn -0.90286 -0.42993 0.00000
vn -0.00000 0.09481 0.99550
vn -0.38287 0.09504 0.91890
vn -0.70390 0.09519 0.70390
vn -0.91890 0.09504 0.38287
vn -0.99550 0.09481 0.00000
vn -0.00000 1.00000 0.00000
vn -0.00000 1.00000 0.00000
vn -0.00000 1.00000 0.00000
vn -0.00000 1.00000 0.00000
vn 0.00000 1.00000 0.00000
vn 0.00000 0.72336 -0.69048
vn 0.26522 0.72422 -0.63653
vn 0.48720 0.72476 -0.48720
vn 0.63653 0.72422 -0.26522
vn 0.69048 0.72336 -0.00000
vn 0.00000 0.42993 -0.90286
vn 0.34709 0.43081 -0.83302
vn 0.63794 0.43137 -0.63794
vn 0.83302 0.43081 -0.34709
vn 0.90286 0.42993 -0.00000
vn -0.90286 -0.42993 0.00000
vn -0.83302 -0.43081 -0.34709
vn -0.63794 -0.43137 -0.63794
vn -0.34709 -0.43081 -0.83302
vn -0.00000 -0.42993 -0.90286
vn -0.99550 0.09481 0.00000
vn -0.91890 0.09504 -0.38287
vn -0.70390 0.09519 -0.70390
vn -0.38287 0.09504 -0.91890
vn 0.00000 0.09481 -0.99550
vn 0.00000 1.00000 0.00000
vn -0.00000 1.00000 -0.00000
vn -0.00000 1.00000 -0.00000
vn -0.00000 1.00000 -0.00000
vn 0.00000 1.00000 -0.00000
vn 0.69048 0.72336 -0.00000
vn 0.63653 0.72422 0.26522
vn 0.48720 0.72476 0.48720
vn 0.26522 0.72422 0.63653
vn 0.00000 0.72336 0.69048
vn 0.90286 0.42993 -0.00000
vn 0.83302 0.43081 0.34709
vn 0.63794 0.43137 0.63794
vn 0.34709 0.43081 0.83302
vn 0.00000 0.42993 0.90286
vn 0.00000 0.42993 0.90286
vn -0.34709 0.43081 0.83302
vn -0.63794 0.43137 0.63794
vn -0.83302 0.43081 0.34709
vn -0.90286 0.42993 0.00000
vn 0.00000 0.41071 0.91177
vn -0.35053 0.41156 0.84128
vn -0.64427 0.41210 0.64427
vn -0.84128 0.41156 0.35053
vn -0.91177 0.41071 0.00000
vn 0.00000 0.34731 0.93775
vn -0.36056 0.34808 0.86535
vn -0.66276 0.34856 0.66276
vn -0.86535 0.34808 0.36056
vn -0.93775 0.34731 0.00000
vn 0.00000 0.22094 0.97529
vn -0.37506 0.22146 0.90016
vn -0.68949 0.22180 0.68949
vn -0.90016 0.22146 0.37506
vn -0.97529 0.22094 0.00000
vn 0.00000 0.00000 1.00000
vn -0.38462 -0.00000 0.92308
vn -0.70711 0.00000 0.70711
vn -0.92308 -0.00000 0.38462
vn -1.00000 -0.00000 -0.00000
vn -0.90286 0.42993 0.00000
vn -0.83302 0.43081 -0.34709
vn -0.63794 0.43137 -0.63794
vn -0.34709 0.43081 -0.83302
vn 0.00000 0.42993 -0.90286
vn -0.91177 0.41071 0.00000
vn -0.84128 0.41156 -0.35053
vn -0.64427 0.41210 -0.64427
vn -0.35053 0.41156 -0.84128
vn 0.00000 0.41071 -0.91177
vn -0.93775 0.34731 0.00000
vn -0.86535 0.34808 -0.36056
vn -0.66276 0.34856 -0.66276
vn -0.36056 0.34808 -0.86535
vn 0.00000 0.34731 -0.93775
vn -0.97529 0.22094 0.00000
vn -0.90016 0.22146 -0.37506
vn -0.68949 0.22180 -0.68949
vn -0.37506 0.22146 -0.90016
vn 0.00000 0.22094 -0.97529
vn -1.00000 -0.00000 -0.00000
vn -0.92308 -0.00000 -0.38462
vn -0.70711 0.00000 -0.70711
vn -0.38462 -0.00000 -0.92308
vn 0.00000 0.00000 -1.00000
vn 0.00000 0.42993 -0.90286
vn 0.34709 0.43081 -0.83302
vn 0.63794 0.43137 -0.63794
vn 0.83302 0.43081 -0.34709
vn 0.90286 0.42993 -0.00000
vn 0.00000 0.41071 -0.91177
vn 0.35053 0.41156 -0.84128
vn 0.64427 0.41210 -0.64427
vn 0.84128 0.41156 -0.35053
vn 0.91177 0.41071 -0.00000
vn 0.00000 0.34731 -0.93775
vn 0.36056 0.34808 -0.86535
vn 0.66276 0.34856 -0.66276
vn 0.86535 0.34808 -0.36056
vn 0.93775 0.34731 -0.00000
vn 0.00000 0.22094 -0.97529
vn 0.37506 0.22146 -0.90016
vn 0.68949 0.22180 -0.68949
vn 0.90016 0.22146 -0.37506
vn 0.97529 0.22094 -0.00000
vn 0.00000 0.00000 -1.00000
vn 0.38462 -0.00000 -0.92308
vn 0.70711 0.00000 -0.70711
vn 0.92308 -0.00000 -0.38462
vn 1.00000 0.00000 -0.00000
vn 0.90286 0.42993 -0.00000
vn 0.83302 0.43081 0.34709
vn 0.63794 0.43137 0.63794
vn 0.34709 0.43081 0.83302
vn 0.00000 0.42993 0.90286
vn 0.91177 0.41071 -0.00000
vn 0.84128 0.41156 0.35053
vn 0.64427 0.41210 0.64427
vn 0.35053 0.41156 0.84128
vn 0.00000 0.41071 0.91177
vn 0.93775 0.34731 -0.00000
vn 0.86535 0.34808 0.36056
vn 0.66276 0.34856 0.66276
vn 0.36056 0.34808 0.86535
vn 0.00000 0.34731 0.93775
vn 0.97529 0.22094 -0.00000
vn 0.90016 0.22146 0.37506
vn 0.68949 0.22180 0.68949
vn 0.37506 0.22146 0.90016
vn 0.00000 0.22094 0.97529
vn 1.00000 0.00000 -0.00000
vn 0.92308 -0.00000 0.38462
vn 0.70711 0.00000 0.70711
vn 0.38462 -0.00000 0.92308
vn 0.00000 0.00000 1.00000
vn 0.00000 0.00000 1.00000
vn -0.38462 -0.00000 0.92308
vn -0.70711 0.00000 0.70711
vn -0.92308 -0.00000 0.38462
vn -1.00000 -0.00000 -0.00000
vn 0.00000 -0.48053 0.87698
vn -0.33710 -0.48146 0.80905
vn -0.61953 -0.48204 0.61953
vn -0.80905 -0.48146 0.33710
vn -0.87698 -0.48053 -0.00000
vn 0.00000 -0.71600 0.69810
vn -0.26816 -0.71687 0.64357
vn -0.49260 -0.71742 0.49260
vn -0.64357 -0.71687 0.26816
vn -0.69810 -0.71600 -0.00000
vn 0.00000 -0.77137 0.63638
vn -0.24440 -0.77215 0.58656
vn -0.44890 -0.77265 0.44890
vn -0.58656 -0.77215 0.24440
vn -0.63638 -0.77137 -0.00000
vn 0.00000 0.00000 1.00000
vn -0.38462 -0.00000 0.92308
vn -0.70711 0.00000 0.70711
vn -0.92308 0.00000 0.38462
vn -1.00000 -0.00000 -0.00000
vn -1.00000 -0.00000 -0.00000
vn -0.92308 -0.00000 -0.38462
vn -0.70711 0.00000 -0.70711
vn -0.38462 -0.00000 -0.92308
vn 0.00000 0.00000 -1.00000
vn -0.87698 -0.48053 -0.00000
vn -0.80905 -0.48146 -0.33710
vn -0.61953 -0.48204 -0.61953
vn -0.33710 -0.48146 -0.80905
vn 0.00000 -0.48053 -0.87698
vn -0.69810 -0.71600 -0.00000
vn -0.64357 -0.71687 -0.26816
vn -0.49260 -0.71742 -0.49260
vn -0.26816 -0.71687 -0.64357
vn 0.00000 -0.71600 -0.69810
vn -0.63638 -0.77137 -0.00000
vn -0.58656 -0.77215 -0.24440
vn -0.44890 -0.77265 -0.44890
vn -0.24440 -0.77215 -0.58656
vn 0.00000 -0.77137 -0.63638
vn -1.00000 -0.00000 -0.00000
vn -0.92308 -0.00000 -0.38462
vn -0.70711 0.00000 -0.70711
vn -0.38462 -0.00000 -0.92308
vn 0.00000 0.00000 -1.00000
vn 0.00000 0.00000 -1.00000
vn 0.38462 -0.00000 -0.92308
vn 0.70711 0.00000 -0.70711
vn 0.92308 -0.00000 -0.38462
vn 1.00000 0.00000 -0.00000
vn 0.00000 -0.48053 -0.87698
vn 0.33710 -0.48146 -0.80905
vn 0.61953 -0.48204 -0.61953
vn 0.80905 -0.48146 -0.33710
vn 0.87698 -0.48053 0.00000
vn 0.00000 -0.71600 -0.69810
vn 0.26816 -0.71687 -0.64357
vn 0.49260 -0.71742 -0.49260
vn 0.64357 -0.71687 -0.26816
vn 0.69810 -0.71600 0.00000
vn 0.00000 -0.77137 -0.63638
vn 0.24440 -0.77215 -0.58656
vn 0.44890 -0.77265 -0.44890
vn 0.58656 -0.77215 -0.24440
vn 0.63638 -0.77137 0.00000
vn 0.00000 0.00000 -1.00000
vn 0.38462 -0.00000 -0.92308
vn 0.70711 0.00000 -0.70711
vn 0.92308 0.00000 -0.38462
vn 1.00000 0.00000 -0.00000
vn 1.00000 0.00000 -0.00000
vn 0.92308 -0.00000 0.38462
vn 0.70711 0.00000 0.70711
vn 0.38462 -0.00000 0.92308
vn 0.00000 0.00000 1.00000
vn 0.87698 -0.48053 0.00000
vn 0.80905 -0.48146 0.33710
vn 0.61953 -0.48204 0.61953
vn 0.33710 -0.48146 0.80905
vn 0.00000 -0.48053 0.87698
vn 0.69810 -0.71600 0.00000
vn 0.64357 -0.71687 0.26816
vn 0.49260 -0.71742 0.49260
vn 0.26816 -0.71687 0.64357
vn 0.00000 -0.71600 0.69810
vn 0.63638 -0.77137 0.00000
vn 0.58656 -0.77215 0.24440
vn 0.44890 -0.77265 0.44890
vn 0.24440 -0.77215 0.58656
vn 0.00000 -0.77137 0.63638
vn 1.00000 0.00000 -0.00000
vn 0.92308 -0.00000 0.38462
vn 0.70711 0.00000 0.70711
vn 0.38462 0.00000 0.92308
vn 0.00000 0.00000 1.00000
vn -0.00000 -1.00000 -0.00000
vn -0.49026 -0.87158 0.00000
vn -1.00000 0.00000 0.00000
vn -0.49026 0.87158 0.00000
vn -0.00000 1.00000 0.00000
vn 0.00000 -0.99967 0.02585
vn -0.48845 -0.87224 0.02462
vn -1.00000 0.00000 0.00000
vn -0.48952 0.87142 -0.03148
vn 0.00000 0.99930 -0.03747
vn 0.00000 -0.98894 0.14834
vn -0.49654 -0.85645 0.14119
vn -1.00000 -0.00000 -0.00000
vn -0.51019 0.84070 -0.18147
vn 0.00000 0.97561 -0.21951
vn 0.00000 -0.83721 0.54689
vn -0.55838 -0.67243 0.48584
vn -1.00000 0.00000 -0.00000
vn -0.58425 0.58330 -0.56429
vn 0.00000 0.70270 -0.71149
vn 0.00000 0.00000 1.00000
vn -0.60000 0.00000 0.80000
vn -1.00000 -0.00000 -0.00000
vn -0.60000 0.00000 -0.80000
vn 0.00000 0.00000 -1.00000
vn -0.00000 1.00000 0.00000
vn 0.49026 0.87158 -0.00000
vn 1.00000 0.00000 0.00000
vn 0.49026 -0.87158 0.00000
vn -0.00000 -1.00000 -0.00000
vn 0.00000 0.99930 -0.03747
vn 0.48952 0.87142 -0.03148
vn 1.00000 0.00000 0.00000
vn 0.48845 -0.87224 0.02462
vn 0.00000 -0.99967 0.02585
vn 0.00000 0.97561 -0.21951
vn 0.51019 0.84070 -0.18147
vn 1.00000 -0.00000 -0.00000
vn 0.49654 -0.85645 0.14119
vn 0.00000 -0.98894 0.14834
vn 0.00000 0.70270 -0.71149
vn 0.58425 0.58330 -0.56429
vn 1.00000 0.00000 0.00000
vn 0.55838 -0.67243 0.48584
vn 0.00000 -0.83721 0.54689
vn 0.00000 0.00000 -1.00000
vn 0.60000 0.00000 -0.80000
vn 1.00000 0.00000 -0.00000
vn 0.60000 0.00000 0.80000
vn 0.00000 0.00000 1.00000
vn 0.00000 0.00000 1.00000
vn -0.60000 0.00000 0.80000
vn -1.00000 -0.00000 -0.00000
vn -0.60000 0.00000 -0.80000
vn 0.00000 0.00000 -1.00000
vn 0.00000 0.32481 0.94578
vn -0.59893 0.26999 0.75392
vn -1.00000 0.00000 -0.00000
vn -0.60004 -0.30146 -0.74100
vn 0.00000 -0.38354 -0.92352
vn 0.00000 0.55470 0.83205
vn -0.55834 0.47974 0.67684
vn -1.00000 -0.00000 0.00000
vn -0.56273 -0.54187 -0.62427
vn 0.00000 -0.66865 -0.74358
vn 0.00000 0.75503 0.65569
vn -0.49242 0.67139 0.55386
vn -1.00000 -0.00000 0.00000
vn -0.50443 -0.70920 -0.49252
vn 0.00000 -0.82934 -0.55875
vn 0.00000 0.91192 0.41036
vn -0.50259 0.78838 0.35477
vn -1.00000 0.00000 0.00000
vn -0.50259 -0.78838 -0.35477
vn 0.00000 -0.91192 -0.41036
vn 0.00000 0.00000 -1.00000
vn 0.60000 0.00000 -0.80000
vn 1.00000 0.00000 -0.00000
vn 0.60000 0.00000 0.80000
vn 0.00000 0.00000 1.00000
vn 0.00000 -0.38354 -0.92352
vn 0.60004 -0.30146 -0.74100
vn 1.00000 0.00000 -0.00000
vn 0.59893 0.26999 0.75392
vn 0.00000 0.32481 0.94578
vn 0.00000 -0.66865 -0.74358
vn 0.56273 -0.54187 -0.62427
vn 1.00000 -0.00000 0.00000
vn 0.55834 0.47974 0.67684
vn 0.00000 0.55470 0.83205
vn 0.00000 -0.82934 -0.55875
vn 0.50443 -0.70920 -0.49252
vn 1.00000 0.00000 -0.00000
vn 0.49242 0.67139 0.55386
vn 0.00000 0.75503 0.65569
vn 0.00000 -0.91192 -0.41036
vn 0.50259 -0.78838 -0.35477
vn 1.00000 -0.00000 -0.00000
vn 0.50259 0.78838 0.35477
vn 0.00000 0.91192 0.41036
vn 0.00000 1.00000 -0.00000
vn -0.68371 0.72929 -0.02621
vn -1.00000 0.00000 0.00000
vn -0.68022 -0.72557 0.10420
vn 0.00000 -0.98733 0.15868
vn 0.00000 0.83873 -0.54455
vn -0.63270 0.67960 -0.37126
vn -0.98329 0.06513 0.16999
vn -0.58752 -0.52831 0.61295
vn 0.00000 -0.69580 0.71824
vn 0.00000 0.39055 -0.92058
vn -0.58790 0.41789 -0.69263
vn -0.96003 0.18028 0.21408
vn -0.51723 -0.17539 0.83768
vn 0.00000 -0.28735 0.95783
vn 0.00000 0.37139 -0.92848
vn -0.67071 0.39092 -0.63034
vn -0.98205 0.17789 0.06272
vn -0.67936 -0.24113 0.69306
vn 0.00000 -0.44055 0.89773
vn 0.00000 0.80000 -0.60000
vn -0.70104 0.59738 -0.38947
vn -1.00000 0.00000 0.00000
vn -0.58840 -0.73954 0.32689
vn 0.00000 -0.92308 0.38462
vn 0.00000 -0.98733 0.15868
vn 0.68022 -0.72557 0.10420
vn 1.00000 0.00000 0.00000
vn 0.68371 0.72929 -0.02621
vn 0.00000 1.00000 -0.00000
vn 0.00000 -0.69580 0.71824
vn 0.58752 -0.52831 0.61295
vn 0.98329 0.06513 0.16999
vn 0.63270 0.67960 -0.37126
vn 0.00000 0.83873 -0.54455
vn 0.00000 -0.28735 0.95783
vn 0.51723 -0.17539 0.83768
vn 0.96003 0.18028 0.21408
vn 0.58790 0.41789 -0.69263
vn 0.00000 0.39055 -0.92058
vn 0.00000 -0.44055 0.89773
vn 0.67936 -0.24113 0.69306
vn 0.98205 0.17789 0.06272
vn 0.67071 0.39092 -0.63034
vn 0.00000 0.37139 -0.92848
vn 0.00000 -0.92308 0.38462
vn 0.58840 -0.73954 0.32689
vn 1.00000 -0.00000 0.00000
vn 0.70104 0.59738 -0.38947
vn 0.00000 0.80000 -0.60000
vn 0.00000 0.80000 -0.60000
vn -0.70104 0.59738 -0.38947
vn -1.00000 0.00000 0.00000
vn -0.58840 -0.73954 0.32689
vn 0.00000 -0.92308 0.38462
vn 0.00000 0.91915 -0.39392
vn -0.49812 0.82746 -0.25922
vn -0.83897 0.54406 -0.01116
vn -0.84338 -0.33874 0.41710
vn 0.00000 -0.84350 0.53713
vn 0.00000 1.00000 -0.00000
vn 0.01151 0.99949 -0.02987
vn -0.05944 0.99762 -0.03489
vn -0.12041 0.99255 0.01852
vn -0.00000 0.99431 0.10653
vn 0.00000 -0.31623 0.94868
vn 0.91036 0.14568 0.38732
vn 0.82402 0.56619 -0.02041
vn 0.47330 0.84906 -0.23470
vn 0.00000 0.95082 -0.30974
vn 0.00000 -0.80000 0.60000
vn 0.73870 -0.56384 0.36935
vn 1.00000 0.00000 -0.00000
vn 0.64842 0.68880 -0.32421
vn 0.00000 0.91192 -0.41036
vn 0.00000 -0.92308 0.38462
vn 0.58840 -0.73954 0.32689
vn 1.00000 -0.00000 0.00000
vn 0.70104 0.59738 -0.38947
vn 0.00000 0.80000 -0.60000
vn 0.00000 -0.84350 0.53713
vn 0.84338 -0.33874 0.41710
vn 0.83897 0.54406 -0.01116
vn 0.49812 0.82746 -0.25922
vn 0.00000 0.91915 -0.39392
vn -0.00000 0.99431 0.10653
vn 0.12041 0.99255 0.01852
vn 0.05944 0.99762 -0.03489
vn -0.01151 0.99949 -0.02987
vn 0.00000 1.00000 -0.00000
vn 0.00000 0.95082 -0.30974
vn -0.47330 0.84906 -0.23470
vn -0.82402 0.56619 -0.02041
vn -0.91036 0.14568 0.38732
vn 0.00000 -0.31623 0.94868
vn 0.00000 0.91192 -0.41036
vn -0.64842 0.68880 -0.32421
vn -1.00000 0.00000 -0.00000
vn -0.73870 -0.56384 0.36935
vn 0.00000 -0.80000 0.60000
vn 0.00000 1.00000 0.00000
vn 0.00000 1.00000 0.00000
vn 0.00000 1.00000 0.00000
vn 0.00000 1.00000 0.00000
vn 0.00000 1.00000 0.00000
vn 0.00000 0.82063 0.57147
vn -0.21842 0.82147 0.52676
vn -0.40265 0.82204 0.40265
vn -0.52676 0.82147 0.21842
vn -0.57147 0.82063 0.00000
vn 0.00000 -0.65274 0.75759
vn -0.28983 -0.65403 0.69874
vn -0.53436 -0.65492 0.53436
vn -0.69874 -0.65403 0.28983
vn -0.75759 -0.65274 -0.00000
vn 0.00000 -0.60112 0.79916
vn -0.30622 -0.60258 0.73697
vn -0.56376 -0.60361 0.56376
vn -0.73697 -0.60258 0.30622
vn -0.79916 -0.60112 -0.00000
vn 0.00000 0.82063 0.57147
vn -0.21943 0.82129 0.52662
vn -0.40298 0.82172 0.40298
vn -0.52662 0.82129 0.21943
vn -0.57147 0.82063 0.00000
vn 0.00000 1.00000 0.00000
vn 0.00000 1.00000 0.00000
vn 0.00000 1.00000 0.00000
vn 0.00000 1.00000 0.00000
vn 0.00000 1.00000 0.00000
vn -0.57147 0.82063 0.00000
vn -0.52676 0.82147 -0.21842
vn -0.40265 0.82204 -0.40265
vn -0.21842 0.82147 -0.52676
vn 0.00000 0.82063 -0.57147
vn -0.75759 -0.65274 -0.00000
vn -0.69874 -0.65403 -0.28983
vn -0.53436 -0.65492 -0.53436
vn -0.28983 -0.65403 -0.69874
vn 0.00000 -0.65274 -0.75759
vn -0.79916 -0.60112 -0.00000
vn -0.73697 -0.60258 -0.30622
vn -0.56376 -0.60361 -0.56376
vn -0.30622 -0.60258 -0.73697
vn 0.00000 -0.60112 -0.79916
vn -0.57147 0.82063 0.00000
vn -0.52662 0.82129 -0.21943
vn -0.40298 0.82172 -0.40298
vn -0.21943 0.82129 -0.52662
vn 0.00000 0.82063 -0.57147
vn 0.00000 1.00000 0.00000
vn 0.00000 1.00000 0.00000
vn 0.00000 1.00000 0.00000
vn 0.00000 1.00000 0.00000
vn 0.00000 1.00000 0.00000
vn 0.00000 0.82063 -0.57147
vn 0.21842 0.82147 -0.52676
vn 0.40265 0.82204 -0.40265
vn 0.52676 0.82147 -0.21842
vn 0.57147 0.82063 -0.00000
vn 0.00000 -0.65274 -0.75759
vn 0.28983 -0.65403 -0.69874
vn 0.53436 -0.65492 -0.53436
vn 0.69874 -0.65403 -0.28983
vn 0.75759 -0.65274 0.00000
vn 0.00000 -0.60112 -0.79916
vn 0.30622 -0.60258 -0.73697
vn 0.56376 -0.60361 -0.56376
vn 0.73697 -0.60258 -0.30622
vn 0.79916 -0.60112 0.00000
vn 0.00000 0.82063 -0.57147
vn 0.21943 0.82129 -0.52662
vn 0.40298 0.82172 -0.40298
vn 0.52662 0.82129 -0.21943
vn 0.57147 0.82063 -0.00000
vn 0.00000 1.00000 0.00000
vn 0.00000 1.00000 0.00000
vn 0.00000 1.00000 0.00000
vn 0.00000 1.00000 0.00000
vn 0.00000 1.00000 0.00000
vn 0.57147 0.82063 -0.00000
vn 0.52676 0.82147 0.21842
vn 0.40265 0.82204 0.40265
vn 0.21842 0.82147 0.52676
vn 0.00000 0.82063 0.57147
vn 0.75759 -0.65274 0.00000
vn 0.69874 -0.65403 0.28983
vn 0.53436 -0.65492 0.53436
vn 0.28983 -0.65403 0.69874
vn 0.00000 -0.65274 0.75759
vn 0.79916 -0.60112 0.00000
vn 0.73697 -0.60258 0.30622
vn 0.56376 -0.60361 0.56376
vn 0.30622 -0.60258 0.73697
vn 0.00000 -0.60112 0.79916
vn 0.57147 0.82063 -0.00000
vn 0.52662 0.82129 0.21943
vn 0.40298 0.82172 0.40298
vn 0.21943 0.82129 0.52662
vn 0.00000 0.82063 0.57147
vn 0.00000 0.82063 0.57147
vn -0.21943 0.82129 0.52662
vn -0.40298 0.82172 0.40298
vn -0.52662 0.82129 0.21943
vn -0.57147 0.82063 0.00000
vn 0.00000 0.98180 0.18992
vn -0.07287 0.98189 0.17489
vn -0.13376 0.98194 0.13376
vn -0.17489 0.98189 0.07287
vn -0.18992 0.98180 0.00000
vn 0.00000 0.99044 0.13794
vn -0.05293 0.99049 0.12702
vn -0.09715 0.99052 0.09715
vn -0.12702 0.99049 0.05293
vn -0.13794 0.99044 0.00000
vn 0.00000 0.97044 0.24135
vn -0.09261 0.97058 0.22227
vn -0.17001 0.97067 0.17001
vn -0.22227 0.97058 0.09261
vn -0.24135 0.97044 0.00000
vn 0.00000 0.00000 1.00000
vn -0.38462 0.00000 0.92308
vn -0.70711 0.00000 0.70711
vn -0.92308 0.00000 0.38462
vn -1.00000 -0.00000 -0.00000
vn -0.57147 0.82063 0.00000
vn -0.52662 0.82129 -0.21943
vn -0.40298 0.82172 -0.40298
vn -0.21943 0.82129 -0.52662
vn 0.00000 0.82063 -0.57147
vn -0.18992 0.98180 0.00000
vn -0.17489 0.98189 -0.07287
vn -0.13376 0.98194 -0.13376
vn -0.07287 0.98189 -0.17489
vn 0.00000 0.98180 -0.18992
vn -0.13794 0.99044 0.00000
vn -0.12702 0.99049 -0.05293
vn -0.09715 0.99052 -0.09715
vn -0.05293 0.99049 -0.12702
vn 0.00000 0.99044 -0.13794
vn -0.24135 0.97044 0.00000
vn -0.22227 0.97058 -0.09261
vn -0.17001 0.97067 -0.17001
vn -0.09261 0.97058 -0.22227
vn 0.00000 0.97044 -0.24135
vn -1.00000 -0.00000 -0.00000
vn -0.92308 0.00000 -0.38462
vn -0.70711 0.00000 -0.70711
vn -0.38462 -0.00000 -0.92308
vn 0.00000 0.00000 -1.00000
vn 0.00000 0.82063 -0.57147
vn 0.21943 0.82129 -0.52662
vn 0.40298 0.82172 -0.40298
vn 0.52662 0.82129 -0.21943
vn 0.57147 0.82063 -0.00000
vn 0.00000 0.98180 -0.18992
vn 0.07287 0.98189 -0.17489
vn 0.13376 0.98194 -0.13376
vn 0.17489 0.98189 -0.07287
vn 0.18992 0.98180 -0.00000
vn 0.00000 0.99044 -0.13794
vn 0.05293 0.99049 -0.12702
vn 0.09715 0.99052 -0.09715
vn 0.12702 0.99049 -0.05293
vn 0.13794 0.99044 -0.00000
vn 0.00000 0.97044 -0.24135
vn 0.09261 0.97058 -0.22227
vn 0.17001 0.97067 -0.17001
vn 0.22227 0.97058 -0.09261
vn 0.24135 0.97044 -0.00000
vn 0.00000 0.00000 -1.00000
vn 0.38462 0.00000 -0.92308
vn 0.70711 0.00000 -0.70711
vn 0.92308 0.00000 -0.38462
vn 1.00000 0.00000 -0.00000
vn 0.57147 0.82063 -0.00000
vn 0.52662 0.82129 0.21943
vn 0.40298 0.82172 0.40298
vn 0.21943 0.82129 0.52662
vn 0.00000 0.82063 0.57147
vn 0.18992 0.98180 -0.00000
vn 0.17489 0.98189 0.07287
vn 0.13376 0.98194 0.13376
vn 0.07287 0.98189 0.17489
vn 0.00000 0.98180 0.18992
vn 0.13794 0.99044 -0.00000
vn 0.12702 0.99049 0.05293
vn 0.09715 0.99052 0.09715
vn 0.05293 0.99049 0.12702
vn 0.00000 0.99044 0.13794
vn 0.24135 0.97044 -0.00000
vn 0.22227 0.97058 0.09261
vn 0.17001 0.97067 0.17001
vn 0.09261 0.97058 0.22227
vn 0.00000 0.97044 0.24135
vn 1.00000 0.00000 -0.00000
vn 0.92308 0.00000 0.38462
vn 0.70711 0.00000 0.70711
vn 0.38462 0.00000 0.92308
vn 0.00000 0.00000 1.00000
vn 0.00000 -1.00000 0.00000
vn 0.00000 -1.00000 0.00000
vn 0.00000 -1.00000 0.00000
vn 0.00000 -1.00000 0.00000
vn 0.00000 -1.00000 0.00000
vn 0.00000 -0.99922 0.03952
vn 0.01516 -0.99922 0.03639
vn 0.02783 -0.99923 0.02783
vn 0.03639 -0.99922 0.01516
vn 0.03952 -0.99922 0.00000
vn 0.00000 -0.98995 0.14142
vn 0.05426 -0.99000 0.13022
vn 0.09960 -0.99003 0.09960
vn 0.13022 -0.99000 0.05426
vn 0.14142 -0.98995 0.00000
vn 0.00000 -0.85749 0.51450
vn 0.19752 -0.85806 0.47405
vn 0.36271 -0.85842 0.36271
vn 0.47405 -0.85806 0.19752
vn 0.51450 -0.85749 0.00000
vn 0.00000 0.00000 1.00000
vn 0.38462 0.00000 0.92308
vn 0.70711 -0.00000 0.70711
vn 0.92308 -0.00000 0.38462
vn 1.00000 -0.00000 0.00000
vn 0.00000 -1.00000 0.00000
vn 0.00000 -1.00000 0.00000
vn 0.00000 -1.00000 0.00000
vn 0.00000 -1.00000 0.00000
vn 0.00000 -1.00000 0.00000
vn 0.03952 -0.99922 0.00000
vn 0.03639 -0.99922 -0.01516
vn 0.02783 -0.99923 -0.02783
vn 0.01516 -0.99922 -0.03639
vn -0.00000 -0.99922 -0.03952
vn 0.14142 -0.98995 0.00000
vn 0.13022 -0.99000 -0.05426
vn 0.09960 -0.99003 -0.09960
vn 0.05426 -0.99000 -0.13022
vn -0.00000 -0.98995 -0.14142
vn 0.51450 -0.85749 0.00000
vn 0.47405 -0.85806 -0.19752
vn 0.36271 -0.85842 -0.36271
vn 0.19752 -0.85806 -0.47405
vn -0.00000 -0.85749 -0.51450
vn 1.00000 -0.00000 0.00000
vn 0.92308 0.00000 -0.38462
vn 0.70711 -0.00000 -0.70711
vn 0.38462 0.00000 -0.92308
vn 0.00000 0.00000 -1.00000
vn 0.00000 -1.00000 0.00000
vn 0.00000 -1.00000 0.00000
vn 0.00000 -1.00000 0.00000
vn 0.00000 -1.00000 0.00000
vn 0.00000 -1.00000 0.00000
vn -0.00000 -0.99922 -0.03952
vn -0.01516 -0.99922 -0.03639
vn -0.02783 -0.99923 -0.02783
vn -0.03639 -0.99922 -0.01516
vn -0.03952 -0.99922 0.00000
vn -0.00000 -0.98995 -0.14142
vn -0.05426 -0.99000 -0.13022
vn -0.09960 -0.99003 -0.09960
vn -0.13022 -0.99000 -0.05426
vn -0.14142 -0.98995 0.00000
vn -0.00000 -0.85749 -0.51450
vn -0.19752 -0.85806 -0.47405
vn -0.36271 -0.85842 -0.36271
vn -0.47405 -0.85806 -0.19752
vn -0.51450 -0.85749 0.00000
vn 0.00000 0.00000 -1.00000
vn -0.38462 0.00000 -0.92308
vn -0.70711 -0.00000 -0.70711
vn -0.92308 0.00000 -0.38462
vn -1.00000 0.00000 0.00000
vn 0.00000 -1.00000 0.00000
vn 0.00000 -1.00000 0.00000
vn 0.00000 -1.00000 0.00000
vn 0.00000 -1.00000 0.00000
vn 0.00000 -1.00000 0.00000
vn -0.03952 -0.99922 0.00000
vn -0.03639 -0.99922 0.01516
vn -0.02783 -0.99923 0.02783
vn -0.01516 -0.99922 0.03639
vn 0.00000 -0.99922 0.03952
vn -0.14142 -0.98995 0.00000
vn -0.13022 -0.99000 0.05426
vn -0.09960 -0.99003 0.09960
vn -0.05426 -0.99000 0.13022
vn 0.00000 -0.98995 0.14142
vn -0.51450 -0.85749 0.00000
vn -0.47405 -0.85806 0.19752
vn -0.36271 -0.85842 0.36271
vn -0.19752 -0.85806 0.47405
vn 0.00000 -0.85749 0.51450
vn -1.00000 0.00000 0.00000
vn -0.92308 0.00000 0.38462
vn -0.70711 -0.00000 0.70711
vn -0.38462 0.00000 0.92308
vn 0.00000 0.00000 1.00000
o Teapot
usemtl teapot
f 1/1/1 2/2/2 7/7/7
f 1/1/1 7/7/7 6/6/6
f 2/2/2 3/3/3 8/8/8
f 2/2/2 8/8/8 7/7/7
f 3/3/3 4/4/4 9/9/9
f 3/3/3 9/9/9 8/8/8
f 4/4/4 5/5/5 10/10/10
f 4/4/4 10/10/10 9/9/9
f 6/6/6 7/7/7 12/12/12
f 6/6/6 12/12/12 11/11/11
f 7/7/7 8/8/8 13/13/13
f 7/7/7 13/13/13 12/12/12
f 8/8/8 9/9/9 14/14/14
f 8/8/8 14/14/14 13/13/13
f 9/9/9 10/10/10 15/15/15
f 9/9/9 15/15/15 14/14/14
f 11/11/11 12/12/12 17/17/17
f 11/11/11 17/17/17 16/16/16
f 12/12/12 13/13/13 18/18/18
f 12/12/12 18/18/18 17/17/17
f 13/13/13 14/14/14 19/19/19
f 13/13/13 19/19/19 18/18/18
f 14/14/14 15/15/15 20/20/20
f 14/14/14 20/20/20 19/19/19
f 16/16/16 17/17/17 22/22/22
f 16/16/16 22/22/22 21/21/21
f 17/17/17 18/18/18 23/23/23
f 17/17/17 23/23/23 22/22/22
f 18/18/18 19/19/19 24/24/24
f 18/18/18 24/24/24 23/23/23
f 19/19/19 20/20/20 25/25/25
f 19/19/19 25/25/25 24/24/24
f 26/26/26 27/27/27 32/32/32
f 26/26/26 32/32/32 31/31/31
f 27/27/27 28/28/28 33/33/33
f 27/27/27 33/33/33 32/32/32
f 28/28/28 29/29/29 34/34/34
f 28/28/28 34/34/34 33/33/33
f 29/29/29 30/30/30 35/35/35
f 29/29/29 35/35/35 34/34/34
f 31/31/31 32/32/32 37/37/37
f 31/31/31 37/37/37 36/36/36
f 32/32/32 33/33/33 38/38/38
f 32/32/32 38/38/38 37/37/37
f 33/33/33 34/34/34 39/39/39
f 33/33/33 39/39/39 38/38/38
f 34/34/34 35/35/35 40/40/40
f 34/34/34 40/40/40 39/39/39
f 36/36/36 37/37/37 42/42/42
f 36/36/36 42/42/42 41/41/41
f 37/37/37 38/38/38 43/43/43
f 37/37/37 43/43/43 42/42/42
f 38/38/38 39/39/39 44/44/44
f 38/38/38 44/44/44 43/43/43
f 39/39/39 40/40/40 45/45/45
f 39/39/39 45/45/45 44/44/44
f 41/41/41 42/42/42 47/47/47
f 41/41/41 47/47/47 46/46/46
f 42/42/42 43/43/43 48/48/48
f 42/42/42 48/48/48 47/47/47
f 43/43/43 44/44/44 49/49/49
f 43/43/43 49/49/49 48/48/48
f 44/44/44 45/45/45 50/50/50
f 44/44/44 50/50/50 49/49/49
f 51/51/51 52/52/52 57/57/57
f 51/51/51 57/57/57 56/56/56
f 52/52/52 53/53/53 58/58/58
f 52/52/52 58/58/58 57/57/57
f 53/53/53 54/54/54 59/59/59
f 53/53/53 59/59/59 58/58/58
f 54/54/54 55/55/55 60/60/60
f 54/54/54 60/60/60 59/59/59
f 56/56/56 57/57/57 62/62/62
f 56/56/56 62/62/62 61/61/61
f 57/57/57 58/58/58 63/63/63
f 57/57/57 63/63/63 62/62/62
f 58/58/58 59/59/59 64/64/64
f 58/58/58 64/64/64 63/63/63
f 59/59/59 60/60/60 65/65/65
f 59/59/59 65/65/65 64/64/64
f 61/61/61 62/62/62 67/67/67
f 61/61/61 67/67/67 66/66/66
f 62/62/62 63/63/63 68/68/68
f 62/62/62 68/68/68 67/67/67
f 63/63/63 64/64/64 69/69/69
f 63/63/63 69/69/69 68/68/68
f 64/64/64 65/65/65 70/70/70
f 64/64/64 70/70/70 69/69/69
f 66/66/66 67/67/67 72/72/72
f 66/66/66 72/72/72 71/71/71
f 67/67/67 68/68/68 73/73/73
f 67/67/67 73/73/73 72/72/72
f 68/68/68 69/69/69 74/74/74
f 68/68/68 74/74/74 73/73/73
f 69/69/69 70/70/70 75/75/75
f 69/69/69 75/75/75 74/74/74
f 76/76/76 77/77/77 82/82/82
f 76/76/76 82/82/82 81/81/81
f 77/77/77 78/78/78 83/83/83
f 77/77/77 83/83/83 82/82/82
f 78/78/78 79/79/79 84/84/84
f 78/78/78 84/84/84 83/83/83
f 79/79/79 80/80/80 85/85/85
f 79/79/79 85/85/85 84/84/84
f 81/81/81 82/82/82 87/87/87
f 81/81/81 87/87/87 86/86/86
f 82/82/82 83/83/83 88/88/88
f 82/82/82 88/88/88 87/87/87
f 83/83/83 84/84/84 89/89/89
f 83/83/83 89/89/89 88/88/88
f 84/84/84 85/85/85 90/90/90
f 84/84/84 90/90/90 89/89/89
f 86/86/86 87/87/87 92/92/92
f 86/86/86 92/92/92 91/91/91
f 87/87/87 88/88/88 93/93/93
f 87/87/87 93/93/93 92/92/92
f 88/88/88 89/89/89 94/94/94
f 88/88/88 94/94/94 93/93/93
f 89/89/89 90/90/90 95/95/95
f 89/89/89 95/95/95 94/94/94
f 91/91/91 92/92/92 97/97/97
f 91/91/91 97/97/97 96/96/96
f 92/92/92 93/93/93 98/98/98
f 92/92/92 98/98/98 97/97/97
f 93/93/93 94/94/94 99/99/99
f 93/93/93 99/99/99 98/98/98
f 94/94/94 95/95/95 100/100/100
f 94/94/94 100/100/100 99/99/99
f 101/101/101 102/102/102 107/107/107
f 101/101/101 107/107/107 106/106/106
f 102/102/102 103/103/103 108/108/108
f 102/102/102 108/108/108 107/107/107
f 103/103/103 104/104/104 109/109/109
f 103/103/103 109/109/109 108/108/108
f 104/104/104 105/105/105 110/110/110
f 104/104/104 110/110/110 109/109/109
f 106/106/106 107/107/107 112/112/112
f 106/106/106 112/112/112 111/111/111
f 107/107/107 108/108/108 113/113/113
f 107/107/107 113/113/113 112/112/112
f 108/108/108 109/109/109 114/114/114
f 108/108/108 114/114/114 113/113/113
f 109/109/109 110/110/110 115/115/115
f 109/109/109 115/115/115 114/114/114
f 111/111/111 112/112/112 117/117/117
f 111/111/111 117/117/117 116/116/116
f 112/112/112 113/113/113 118/118/118
f 112/112/112 118/118/118 117/117/117
f 113/113/113 114/114/114 119/119/119
f 113/113/113 119/119/119 118/118/118
f 114/114/114 115/115/115 120/120/120
f 114/114/114 120/120/120 119/119/119
f 116/116/116 117/117/117 122/122/122
f 116/116/116 122/122/122 121/121/121
f 117/117/117 118/118/118 123/123/123
f 117/117/117 123/123/123 122/122/122
f 118/118/118 119/119/119 124/124/124
f 118/118/118 124/124/124 123/123/123
f 119/119/119 120/120/120 125/125/125
f 119/119/119 125/125/125 124/124/124
f 126/126/126 127/127/127 132/132/132
f 126/126/126 132/132/132 131/131/131
f 127/127/127 128/128/128 133/133/133
f 127/127/127 133/133/133 132/132/132
f 128/128/128 129/129/129 134/134/134
f 128/128/128 134/134/134 133/133/133
f 129/129/129 130/130/130 135/135/135
f 129/129/129 135/135/135 134/134/134
f 131/131/131 132/132/132 137/137/137
f 131/131/131 137/137/137 136/136/136
f 132/132/132 133/133/133 138/138/138
f 132/132/132 138/138/138 137/137/137
f 133/133/133 134/134/134 139/139/139
f 133/133/133 139/139/139 138/138/138
f 134/134/134 135/135/135 140/140/140
f 134/134/134 140/140/140 139/139/139
f 136/136/136 137/137/137 142/142/142
f 136/136/136 142/142/142 141/141/141
f 137/137/137 138/138/138 143/143/143
f 137/137/137 143/143/143 142/142/142
f 138/138/138 139/139/139 144/144/144
f 138/138/138 144/144/144 143/143/143
f 139/139/139 140/140/140 145/145/145
f 139/139/139 145/145/145 144/144/144
f 141/141/141 142/142/142 147/147/147
f 141/141/141 147/147/147 146/146/146
f 142/142/142 143/143/143 148/148/148
f 142/142/142 148/148/148 147/147/147
f 143/143/143 144/144/144 149/149/149
f 143/143/143 149/149/149 148/148/148
f 144/144/144 145/145/145 150/150/150
f 144/144/144 150/150/150 149/149/149
f 151/151/151 152/152/152 157/157/157
f 151/151/151 157/157/157 156/156/156
f 152/152/152 153/153/153 158/158/158
f 152/152/152 158/158/158 157/157/157
f 153/153/153 154/154/154 159/159/159
f 153/153/153 159/159/159 158/158/158
f 154/154/154 155/155/155 160/160/160
f 154/154/154 160/160/160 159/159/159
f 156/156/156 157/157/157 162/162/162
f 156/156/156 162/162/162 161/161/161
f 157/157/157 158/158/158 163/163/163
f 157/157/157 163/163/163 162/162/162
f 158/158/158 159/159/159 164/164/164
f 158/158/158 164/164/164 163/163/163
f 159/159/159 160/160/160 165/165/165
f 159/159/159 165/165/165 164/164/164
f 161/161/161 162/162/162 167/167/167
f 161/161/161 167/167/167 166/166/166
f 162/162/162 163/163/163 168/168/168
f 162/162/162 168/168/168 167/167/167
f 163/163/163 164/164/164 169/169/169
f 163/163/163 169/169/169 168/168/168
f 164/164/164 165/165/165 170/170/170
f 164/164/164 170/170/170 169/169/169
f 166/166/166 167/167/167 172/172/172
f 166/166/166 172/172/172 171/171/171
f 167/167/167 168/168/168 173/173/173
f 167/167/167 173/173/173 172/172/172
f 168/168/168 169/169/169 174/174/174
f 168/168/168 174/174/174 173/173/173
f 169/169/169 170/170/170 175/175/175
f 169/169/169 175/175/175 174/174/174
f 176/176/176 177/177/177 182/182/182
f 176/176/176 182/182/182 181/181/181
f 177/177/177 178/178/178 183/183/183
f 177/177/177 183/183/183 182/182/182
f 178/178/178 179/179/179 184/184/184
f 178/178/178 184/184/184 183/183/183
f 179/179/179 180/180/180 185/185/185
f 179/179/179 185/185/185 184/184/184
f 181/181/181 182/182/182 187/187/187
f 181/181/181 187/187/187 186/186/186
f 182/182/182 183/183/183 188/188/188
f 182/182/182 188/188/188 187/187/187
f 183/183/183 184/184/184 189/189/189
f 183/183/183 189/189/189 188/188/188
f 184/184/184 185/185/185 190/190/190
f 184/184/184 190/190/190 189/189/189
f 186/186/186 187/187/187 192/192/192
f 186/186/186 192/192/192 191/191/191
f 187/187/187 188/188/188 193/193/193
f 187/187/187 193/193/193 192/192/192
f 188/188/188 189/189/189 194/194/194
f 188/188/188 194/194/194 193/193/193
f 189/189/189 190/190/190 195/195/195
f 189/189/189 195/195/195 194/194/194
f 191/191/191 192/192/192 197/197/197
f 191/191/191 197/197/197 196/196/196
f 192/192/192 193/193/193 198/198/198
f 192/192/192 198/198/198 197/197/197
f 193/193/193 194/194/194 199/199/199
f 193/193/193 199/199/199 198/198/198
f 194/194/194 195/195/195 200/200/200
f 194/194/194 200/200/200 199/199/199
f 201/201/201 202/202/202 207/207/207
f 201/201/201 207/207/207 206/206/206
f 202/202/202 203/203/203 208/208/208
f 202/202/202 208/208/208 207/207/207
f 203/203/203 204/204/204 209/209/209
f 203/203/203 209/209/209 208/208/208
f 204/204/204 205/205/205 210/210/210
f 204/204/204 210/210/210 209/209/209
f 206/206/206 207/207/207 212/212/212
f 206/206/206 212/212/212 211/211/211
f 207/207/207 208/208/208 213/213/213
f 207/207/207 213/213/213 212/212/212
f 208/208/208 209/209/209 214/214/214
f 208/208/208 214/214/214 213/213/213
f 209/209/209 210/210/210 215/215/215
f 209/209/209 215/215/215 214/214/214
f 211/211/211 212/212/212 217/217/217
f 211/211/211 217/217/217 216/216/216
f 212/212/212 213/213/213 218/218/218
f 212/212/212 218/218/218 217/217/217
f 213/213/213 214/214/214 219/219/219
f 213/213/213 219/219/219 218/218/218
f 214/214/214 215/215/215 220/220/220
f 214/214/214 220/220/220 219/219/219
f 216/216/216 217/217/217 222/222/222
f 216/216/216 222/222/222 221/221/221
f 217/217/217 218/218/218 223/223/223
f 217/217/217 223/223/223 222/222/222
f 218/218/218 219/219/219 224/224/224
f 218/218/218 224/224/224 223/223/223
f 219/219/219 220/220/220 225/225/225
f 219/219/219 225/225/225 224/224/224
f 226/226/226 227/227/227 232/232/232
f 226/226/226 232/232/232 231/231/231
f 227/227/227 228/228/228 233/233/233
f 227/227/227 233/233/233 232/232/232
f 228/228/228 229/229/229 234/234/234
f 228/228/228 234/234/234 233/233/233
f 229/229/229 230/230/230 235/235/235
f 229/229/229 235/235/235 234/234/234
f 231/231/231 232/232/232 237/237/237
f 231/231/231 237/237/237 236/236/236
f 232/232/232 233/233/233 238/238/238
f 232/232/232 238/238/238 237/237/237
f 233/233/233 234/234/234 239/239/239
f 233/233/233 239/239/239 238/238/238
f 234/234/234 235/235/235 240/240/240
f 234/234/234 240/240/240 239/239/239
f 236/236/236 237/237/237 242/242/242
f 236/236/236 242/242/242 241/241/241
f 237/237/237 238/238/238 243/243/243
f 237/237/237 243/243/243 242/242/242
f 238/238/238 239/239/239 244/244/244
f 238/238/238 244/244/244 243/243/243
f 239/239/239 240/240/240 245/245/245
f 239/239/239 245/245/245 244/244/244
f 241/241/241 242/242/242 247/247/247
f 241/241/241 247/247/247 246/246/246
f 242/242/242 243/243/243 248/248/248
f 242/242/242 248/248/248 247/247/247
f 243/243/243 244/244/244 249/249/249
f 243/243/243 249/249/249 248/248/248
f 244/244/244 245/245/245 250/250/250
f 244/244/244 250/250/250 249/249/249
f 251/251/251 252/252/252 257/257/257
f 251/251/251 257/257/257 256/256/256
f 252/252/252 253/253/253 258/258/258
f 252/252/252 258/258/258 257/257/257
f 253/253/253 254/254/254 259/259/259
f 253/253/253 259/259/259 258/258/258
f 254/254/254 255/255/255 260/260/260
f 254/254/254 260/260/260 259/259/259
f 256/256/256 257/257/257 262/262/262
f 256/256/256 262/262/262 261/261/261
f 257/257/257 258/258/258 263/263/263
f 257/257/257 263/263/263 262/262/262
f 258/258/258 259/259/259 264/264/264
f 258/258/258 264/264/264 263/263/263
f 259/259/259 260/260/260 265/265/265
f 259/259/259 265/265/265 264/264/264
f 261/261/261 262/262/262 267/267/267
f 261/261/261 267/267/267 266/266/266
f 262/262/262 263/263/263 268/268/268
f 262/262/262 268/268/268 267/267/267
f 263/263/263 264/264/264 269/269/269
f 263/263/263 269/269/269 268/268/268
f 264/264/264 265/265/265 270/270/270
f 264/264/264 270/270/270 269/269/269
f 266/266/266 267/267/267 272/272/272
f 266/266/266 272/272/272 271/271/271
f 267/267/267 268/268/268 273/273/273
f 267/267/267 273/273/273 272/272/272
f 268/268/268 269/269/269 274/274/274
f 268/268/268 274/274/274 273/273/273
f 269/269/269 270/270/270 275/275/275
f 269/269/269 275/275/275 274/274/274
f 276/276/276 277/277/277 282/282/282
f 276/276/276 282/282/282 281/281/281
f 277/277/277 278/278/278 283/283/283
f 277/277/277 283/283/283 282/282/282
f 278/278/278 279/279/279 284/284/284
f 278/278/278 284/284/284 283/283/283
f 279/279/279 280/280/280 285/285/285
f 279/279/279 285/285/285 284/284/284
f 281/281/281 282/282/282 287/287/287
f 281/281/281 287/287/287 286/286/286
f 282/282/282 283/283/283 288/288/288
f 282/282/282 288/288/288 287/287/287
f 283/283/283 284/284/284 289/289/289
f 283/283/283 289/289/289 288/288/288
f 284/284/284 285/285/285 290/290/290
f 284/284/284 290/290/290 289/289/289
f 286/286/286 287/287/287 292/292/292
f 286/286/286 292/292/292 291/291/291
f 287/287/287 288/288/288 293/293/293
f 287/287/287 293/293/293 292/292/292
f 288/288/288 289/289/289 294/294/294
f 288/288/288 294/294/294 293/293/293
f 289/289/289 290/290/290 295/295/295
f 289/289/289 295/295/295 294/294/294
f 291/291/291 292/292/292 297/297/297
f 291/291/291 297/297/297 296/296/296
f 292/292/292 293/293/293 298/298/298
f 292/292/292 298/298/298 297/297/297
f 293/293/293 294/294/294 299/299/299
f 293/293/293 299/299/299 298/298/298
f 294/294/294 295/295/295 300/300/300
f 294/294/294 300/300/300 299/299/299
f 301/301/301 302/302/302 307/307/307
f 301/301/301 307/307/307 306/306/306
f 302/302/302 303/303/303 308/308/308
f 302/302/302 308/308/308 307/307/307
f 303/303/303 304/304/304 309/309/309
f 303/303/303 309/309/309 308/308/308
f 304/304/304 305/305/305 310/310/310
f 304/304/304 310/310/310 309/309/309
f 306/306/306 307/307/307 312/312/312
f 306/306/306 312/312/312 311/311/311
f 307/307/307 308/308/308 313/313/313
f 307/307/307 313/313/313 312/312/312
f 308/308/308 309/309/309 314/314/314
f 308/308/308 314/314/314 313/313/313
f 309/309/309 310/310/310 315/315/315
f 309/309/309 315/315/315 314/314/314
f 311/311/311 312/312/312 317/317/317
f 311/311/311 317/317/317 316/316/316
f 312/312/312 313/313/313 318/318/318
f 312/312/312 318/318/318 317/317/317
f 313/313/313 314/314/314 319/319/319
f 313/313/313 319/319/319 318/318/318
f 314/314/314 315/315/315 320/320/320
f 314/314/314 320/320/320 319/319/319
f 316/316/316 317/317/317 322/322/322
f 316/316/316 322/322/322 321/321/321
f 317/317/317 318/318/318 323/323/323
f 317/317/317 323/323/323 322/322/322
f 318/318/318 319/319/319 324/324/324
f 318/318/318 324/324/324 323/323/323
f 319/319/319 320/320/320 325/325/325
f 319/319/319 325/325/325 324/324/324
f 326/326/326 327/327/327 332/332/332
f 326/326/326 332/332/332 331/331/331
f 327/327/327 328/328/328 333/333/333
f 327/327/327 333/333/333 332/332/332
f 328/328/328 329/329/329 334/334/334
f 328/328/328 334/334/334 333/333/333
f 329/329/329 330/330/330 335/335/335
f 329/329/329 335/335/335 334/334/334
f 331/331/331 332/332/332 337/337/337
f 331/331/331 337/337/337 336/336/336
f 332/332/332 333/333/333 338/338/338
f 332/332/332 338/338/338 337/337/337
f 333/333/333 334/334/334 339/339/339
f 333/333/333 339/339/339 338/338/338
f 334/334/334 335/335/335 340/340/340
f 334/334/334 340/340/340 339/339/339
f 336/336/336 337/337/337 342/342/342
f 336/336/336 342/342/342 341/341/341
f 337/337/337 338/338/338 343/343/343
f 337/337/337 343/343/343 342/342/342
f 338/338/338 339/339/339 344/344/344
f 338/338/338 344/344/344 343/343/343
f 339/339/339 340/340/340 345/345/345
f 339/339/339 345/345/345 344/344/344
f 341/341/341 342/342/342 347/347/347
f 341/341/341 347/347/347 346/346/346
f 342/342/342 343/343/343 348/348/348
f 342/342/342 348/348/348 347/347/347
f 343/343/343 344/344/344 349/349/349
f 343/343/343 349/349/349 348/348/348
f 344/344/344 345/345/345 350/350/350
f 344/344/344 350/350/350 349/349/349
f 351/351/351 352/352/352 357/357/357
f 351/351/351 357/357/357 356/356/356
f 352/352/352 353/353/353 358/358/358
f 352/352/352 358/358/358 357/357/357
f 353/353/353 354/354/354 359/359/359
f 353/353/353 359/359/359 358/358/358
f 354/354/354 355/355/355 360/360/360
f 354/354/354 360/360/360 359/359/359
f 356/356/356 357/357/357 362/362/362
f 356/356/356 362/362/362 361/361/361
f 357/357/357 358/358/358 363/363/363
f 357/357/357 363/363/363 362/362/362
f 358/358/358 359/359/359 364/364/364
f 358/358/358 364/364/364 363/363/363
f 359/359/359 360/360/360 365/365/365
f 359/359/359 365/365/365 364/364/364
f 361/361/361 362/362/362 367/367/367
f 361/361/361 367/367/367 366/366/366
f 362/362/362 363/363/363 368/368/368
f 362/362/362 368/368/368 367/367/367
f 363/363/363 364/364/364 369/369/369
f 363/363/363 369/369/369 368/368/368
f 364/364/364 365/365/365 370/370/370
f 364/364/364 370/370/370 369/369/369
f 366/366/366 367/367/367 372/372/372
f 366/366/366 372/372/372 371/371/371
f 367/367/367 368/368/368 373/373/373
f 367/367/367 373/373/373 372/372/372
f 368/368/368 369/369/369 374/374/374
f 368/368/368 374/374/374 373/373/373
f 369/369/369 370/370/370 375/375/375
f 369/369/369 375/375/375 374/374/374
f 376/376/376 377/377/377 382/382/382
f 376/376/376 382/382/382 381/381/381
f 377/377/377 378/378/378 383/383/383
f 377/377/377 383/383/383 382/382/382
f 378/378/378 379/379/379 384/384/384
f 378/378/378 384/384/384 383/383/383
f 379/379/379 380/380/380 385/385/385
f 379/379/379 385/385/385 384/384/384
f 381/381/381 382/382/382 387/387/387
f 381/381/381 387/387/387 386/386/386
f 382/382/382 383/383/383 388/388/388
f 382/382/382 388/388/388 387/387/387
f 383/383/383 384/384/384 389/389/389
f 383/383/383 389/389/389 388/388/388
f 384/384/384 385/385/385 390/390/390
f 384/384/384 390/390/390 389/389/389
f 386/386/386 387/387/387 392/392/392
f 386/386/386 392/392/392 391/391/391
f 387/387/387 388/388/388 393/393/393
f 387/387/387 393/393/393 392/392/392
f 388/388/388 389/389/389 394/394/394
f 388/388/388 394/394/394 393/393/393
f 389/389/389 390/390/390 395/395/395
f 389/389/389 395/395/395 394/394/394
f 391/391/391 392/392/392 397/397/397
f 391/391/391 397/397/397 396/396/396
f 392/392/392 393/393/393 398/398/398
f 392/392/392 398/398/398 397/397/397
f 393/393/393 394/394/394 399/399/399
f 393/393/393 399/399/399 398/398/398
f 394/394/394 395/395/395 400/400/400
f 394/394/394 400/400/400 399/399/399
f 401/401/401 402/402/402 407/407/407
f 401/401/401 407/407/407 406/406/406
f 402/402/402 403/403/403 408/408/408
f 402/402/402 408/408/408 407/407/407
f 403/403/403 404/404/404 409/409/409
f 403/403/403 409/409/409 408/408/408
f 404/404/404 405/405/405 410/410/410
f 404/404/404 410/410/410 409/409/409
f 406/406/406 407/407/407 412/412/412
f 406/406/406 412/412/412 411/411/411
f 407/407/407 408/408/408 413/413/413
f 407/407/407 413/413/413 412/412/412
f 408/408/408 409/409/409 414/414/414
f 408/408/408 414/414/414 413/413/413
f 409/409/409 410/410/410 415/415/415
f 409/409/409 415/415/415 414/414/414
f 411/411/411 412/412/412 417/417/417
f 411/411/411 417/417/417 416/416/416
f 412/412/412 413/413/413 418/418/418
f 412/412/412 418/418/418 417/417/417
f 413/413/413 414/414/414 419/419/419
f 413/413/413 419/419/419 418/418/418
f 414/414/414 415/415/415 420/420/420
f 414/414/414 420/420/420 419/419/419
f 416/416/416 417/417/417 422/422/422
f 416/416/416 422/422/422 421/421/421
f 417/417/417 418/418/418 423/423/423
f 417/417/417 423/423/423 422/422/422
f 418/418/418 419/419/419 424/424/424
f 418/418/418 424/424/424 423/423/423
f 419/419/419 420/420/420 425/425/425
f 419/419/419 425/425/425 424/424/424
f 426/426/426 427/427/427 432/432/432
f 426/426/426 432/432/432 431/431/431
f 427/427/427 428/428/428 433/433/433
f 427/427/427 433/433/433 432/432/432
f 428/428/428 429/429/429 434/434/434
f 428/428/428 434/434/434 433/433/433
f 429/429/429 430/430/430 435/435/435
f 429/429/429 435/435/435 434/434/434
f 431/431/431 432/432/432 437/437/437
f 431/431/431 437/437/437 436/436/436
f 432/432/432 433/433/433 438/438/438
f 432/432/432 438/438/438 437/437/437
f 433/433/433 434/434/434 439/439/439
f 433/433/433 439/439/439 438/438/438
f 434/434/434 435/435/435 440/440/440
f 434/434/434 440/440/440 439/439/439
f 436/436/436 437/437/437 442/442/442
f 436/436/436 442/442/442 441/441/441
f 437/437/437 438/438/438 443/443/443
f 437/437/437 443/443/443 442/442/442
f 438/438/438 439/439/439 444/444/444
f 438/438/438 444/444/444 443/443/443
f 439/439/439 440/440/440 445/445/445
f 439/439/439 445/445/445 444/444/444
f 441/441/441 442/442/442 447/447/447
f 441/441/441 447/447/447 446/446/446
f 442/442/442 443/443/443 448/448/448
f 442/442/442 448/448/448 447/447/447
f 443/443/443 444/444/444 449/449/449
f 443/443/443 449/449/449 448/448/448
f 444/444/444 445/445/445 450/450/450
f 444/444/444 450/450/450 449/449/449
f 451/451/451 452/452/452 457/457/457
f 451/451/451 457/457/457 456/456/456
f 452/452/452 453/453/453 458/458/458
f 452/452/452 458/458/458 457/457/457
f 453/453/453 454/454/454 459/459/459
f 453/453/453 459/459/459 458/458/458
f 454/454/454 455/455/455 460/460/460
f 454/454/454 460/460/460 459/459/459
f 456/456/456 457/457/457 462/462/462
f 456/456/456 462/462/462 461/461/461
f 457/457/457 458/458/458 463/463/463
f 457/457/457 463/463/463 462/462/462
f 458/458/458 459/459/459 464/464/464
f 458/458/458 464/464/464 463/463/463
f 459/459/459 460/460/460 465/465/465
f 459/459/459 465/465/465 464/464/464
f 461/461/461 462/462/462 467/467/467
f 461/461/461 467/467/467 466/466/466
f 462/462/462 463/463/463 468/468/468
f 462/462/462 468/468/468 467/467/467
f 463/463/463 464/464/464 469/469/469
f 463/463/463 469/469/469 468/468/468
f 464/464/464 465/465/465 470/470/470
f 464/464/464 470/470/470 469/469/469
f 466/466/466 467/467/467 472/472/472
f 466/466/466 472/472/472 471/471/471
f 467/467/467 468/468/468 473/473/473
f 467/467/467 473/473/473 472/472/472
f 468/468/468 469/469/469 474/474/474
f 468/468/468 474/474/474 473/473/473
f 469/469/469 470/470/470 475/475/475
f 469/469/469 475/475/475 474/474/474
f 476/476/476 477/477/477 482/482/482
f 476/476/476 482/482/482 481/481/481
f 477/477/477 478/478/478 483/483/483
f 477/477/477 483/483/483 482/482/482
f 478/478/478 479/479/479 484/484/484
f 478/478/478 484/484/484 483/483/483
f 479/479/479 480/480/480 485/485/485
f 479/479/479 485/485/485 484/484/484
f 481/481/481 482/482/482 487/487/487
f 481/481/481 487/487/487 486/486/486
f 482/482/482 483/483/483 488/488/488
f 482/482/482 488/488/488 487/487/487
f 483/483/483 484/484/484 489/489/489
f 483/483/483 489/489/489 488/488/488
f 484/484/484 485/485/485 490/490/490
f 484/484/484 490/490/490 489/489/489
f 486/486/486 487/487/487 492/492/492
f 486/486/486 492/492/492 491/491/491
f 487/487/487 488/488/488 493/493/493
f 487/487/487 493/493/493 492/492/492
f 488/488/488 489/489/489 494/494/494
f 488/488/488 494/494/494 493/493/493
f 489/489/489 490/490/490 495/495/495
f 489/489/489 495/495/495 494/494/494
f 491/491/491 492/492/492 497/497/497
f 491/491/491 497/497/497 496/496/496
f 492/492/492 493/493/493 498/498/498
f 492/492/492 498/498/498 497/497/497
f 493/493/493 494/494/494 499/499/499
f 493/493/493 499/499/499 498/498/498
f 494/494/494 495/495/495 500/500/500
f 494/494/494 500/500/500 499/499/499
f 611/611/611 612/612/612 617/617/617
f 611/611/611 617/617/617 616/616/616
f 612/612/612 613/613/613 618/618/618
f 612/612/612 618/618/618 617/617/617
f 613/613/613 614/614/614 619/619/619
f 613/613/613 619/619/619 618/618/618
f 614/614/614 615/615/615 620/620/620
f 614/614/614 620/620/620 619/619/619
f 616/616/616 617/617/617 622/622/622
f 616/616/616 622/622/622 621/621/621
f 617/617/617 618/618/618 623/623/623
f 617/617/617 623/623/623 622/622/622
f 618/618/618 619/619/619 624/624/624
f 618/618/618 624/624/624 623/623/623
f 619/619/619 620/620/620 625/625/625
f 619/619/619 625/625/625 624/624/624
f 636/636/636 637/637/637 642/642/642
f 636/636/636 642/642/642 641/641/641
f 637/637/637 638/638/638 643/643/643
f 637/637/637 643/643/643 642/642/642
f 638/638/638 639/639/639 644/644/644
f 638/638/638 644/644/644 643/643/643
f 639/639/639 640/640/640 645/645/645
f 639/639/639 645/645/645 644/644/644
f 641/641/641 642/642/642 647/647/647
f 641/641/641 647/647/647 646/646/646
f 642/642/642 643/643/643 648/648/648
f 642/642/642 648/648/648 647/647/647
f 643/643/643 644/644/644 649/649/649
f 643/643/643 649/649/649 648/648/648
f 644/644/644 645/645/645 650/650/650
f 644/644/644 650/650/650 649/649/649
f 661/661/661 662/662/662 667/667/667
f 661/661/661 667/667/667 666/666/666
f 662/662/662 663/663/663 668/668/668
f 662/662/662 668/668/668 667/667/667
f 663/663/663 664/664/664 669/669/669
f 663/663/663 669/669/669 668/668/668
f 664/664/664 665/665/665 670/670/670
f 664/664/664 670/670/670 669/669/669
f 666/666/666 667/667/667 672/672/672
f 666/666/666 672/672/672 671/671/671
f 667/667/667 668/668/668 673/673/673
f 667/667/667 673/673/673 672/672/672
f 668/668/668 669/669/669 674/674/674
f 668/668/668 674/674/674 673/673/673
f 669/669/669 670/670/670 675/675/675
f 669/669/669 675/675/675 674/674/674
f 686/686/686 687/687/687 692/692/692
f 686/686/686 692/692/692 691/691/691
f 687/687/687 688/688/688 693/693/693
f 687/687/687 693/693/693 692/692/692
f 688/688/688 689/689/689 694/694/694
f 688/688/688 694/694/694 693/693/693
f 689/689/689 690/690/690 695/695/695
f 689/689/689 695/695/695 694/694/694
f 691/691/691 692/692/692 697/697/697
f 691/691/691 697/697/697 696/696/696
f 692/692/692 693/693/693 698/698/698
f 692/692/692 698/698/698 697/697/697
f 693/693/693 694/694/694 699/699/699
f 693/693/693 699/699/699 698/698/698
f 694/694/694 695/695/695 700/700/700
f 694/694/694 700/700/700 699/699/699
f 701/701/701 707/707/707 706/706/706
f 702/702/702 708/708/708 707/707/707
f 703/703/703 709/709/709 708/708/708
f 704/704/704 710/710/710 709/709/709
f 706/706/706 707/707/707 712/712/712
f 706/706/706 712/712/712 711/711/711
f 707/707/707 708/708/708 713/713/713
f 707/707/707 713/713/713 712/712/712
f 708/708/708 709/709/709 714/714/714
f 708/708/708 714/714/714 713/713/713
f 709/709/709 710/710/710 715/715/715
f 709/709/709 715/715/715 714/714/714
f 711/711/711 712/712/712 717/717/717
f 711/711/711 717/717/717 716/716/716
f 712/712/712 713/713/713 718/718/718
f 712/712/712 718/718/718 717/717/717
f 713/713/713 714/714/714 719/719/719
f 713/713/713 719/719/719 718/718/718
f 714/714/714 715/715/715 720/720/720
f 714/714/714 720/720/720 719/719/719
f 716/716/716 717/717/717 722/722/722
f 716/716/716 722/722/722 721/721/721
f 717/717/717 718/718/718 723/723/723
f 717/717/717 723/723/723 722/722/722
f 718/718/718 719/719/719 724/724/724
f 718/718/718 724/724/724 723/723/723
f 719/719/719 720/720/720 725/725/725
f 719/719/719 725/725/725 724/724/724
f 726/726/726 732/732/732 731/731/731
f 727/727/727 733/733/733 732/732/732
f 728/728/728 734/734/734 733/733/733
f 729/729/729 735/735/735 734/734/734
f 731/731/731 732/732/732 737/737/737
f 731/731/731 737/737/737 736/736/736
f 732/732/732 733/733/733 738/738/738
f 732/732/732 738/738/738 737/737/737
f 733/733/733 734/734/734 739/739/739
f 733/733/733 739/739/739 738/738/738
f 734/734/734 735/735/735 740/740/740
f 734/734/734 740/740/740 739/739/739
f 736/736/736 737/737/737 742/742/742
f 736/736/736 742/742/742 741/741/741
f 737/737/737 738/738/738 743/743/743
f 737/737/737 743/743/743 742/742/742
f 738/738/738 739/739/739 744/744/744
f 738/738/738 744/744/744 743/743/743
f 739/739/739 740/740/740 745/745/745
f 739/739/739 745/745/745 744/744/744
f 741/741/741 742/742/742 747/747/747
f 741/741/741 747/747/747 746/746/746
f 742/742/742 743/743/743 748/748/748
f 742/742/742 748/748/748 747/747/747
f 743/743/743 744/744/744 749/749/749
f 743/743/743 749/749/749 748/748/748
f 744/744/744 745/745/745 750/750/750
f 744/744/744 750/750/750 749/749/749
f 751/751/751 757/757/757 756/756/756
f 752/752/752 758/758/758 757/757/757
f 753/753/753 759/759/759 758/758/758
f 754/754/754 760/760/760 759/759/759
f 756/756/756 757/757/757 762/762/762
f 756/756/756 762/762/762 761/761/761
f 757/757/757 758/758/758 763/763/763
f 757/757/757 763/763/763 762/762/762
f 758/758/758 759/759/759 764/764/764
f 758/758/758 764/764/764 763/763/763
f 759/759/759 760/760/760 765/765/765
f 759/759/759 765/765/765 764/764/764
f 761/761/761 762/762/762 767/767/767
f 761/761/761 767/767/767 766/766/766
f 762/762/762 763/763/763 768/768/768
f 762/762/762 768/768/768 767/767/767
f 763/763/763 764/764/764 769/769/769
f 763/763/763 769/769/769 768/768/768
f 764/764/764 765/765/765 770/770/770
f 764/764/764 770/770/770 769/769/769
f 766/766/766 767/767/767 772/772/772
f 766/766/766 772/772/772 771/771/771
f 767/767/767 768/768/768 773/773/773
f 767/767/767 773/773/773 772/772/772
f 768/768/768 769/769/769 774/774/774
f 768/768/768 774/774/774 773/773/773
f 769/769/769 770/770/770 775/775/775
f 769/769/769 775/775/775 774/774/774
f 776/776/776 782/782/782 781/781/781
f 777/777/777 783/783/783 782/782/782
f 778/778/778 784/784/784 783/783/783
f 779/779/779 785/785/785 784/784/784
f 781/781/781 782/782/782 787/787/787
f 781/781/781 787/787/787 786/786/786
f 782/782/782 783/783/783 788/788/788
f 782/782/782 788/788/788 787/787/787
f 783/783/783 784/784/784 789/789/789
f 783/783/783 789/789/789 788/788/788
f 784/784/784 785/785/785 790/790/790
f 784/784/784 790/790/790 789/789/789
f 786/786/786 787/787/787 792/792/792
f 786/786/786 792/792/792 791/791/791
f 787/787/787 788/788/788 793/793/793
f 787/787/787 793/793/793 792/792/792
f 788/788/788 789/789/789 794/794/794
f 788/788/788 794/794/794 793/793/793
f 789/789/789 790/790/790 795/795/795
f 789/789/789 795/795/795 794/794/794
f 791/791/791 792/792/792 797/797/797
f 791/791/791 797/797/797 796/796/796
f 792/792/792 793/793/793 798/798/798
f 792/792/792 798/798/798 797/797/797
f 793/793/793 794/794/794 799/799/799
f 793/793/793 799/799/799 798/798/798
f 794/794/794 795/795/795 800/800/800
f 794/794/794 800/800/800 799/799/799
o cockpit
usemtl teapot
f 501/501/501 507/507/507 506/506/506
f 502/502/502 503/503/503 508/508/508
f 502/502/502 508/508/508 507/507/507
f 503/503/503 504/504/504 509/509/509
f 503/503/503 509/509/509 508/508/508
f 504/504/504 510/510/510 509/509/509
f 506/506/506 507/507/507 512/512/512
f 506/506/506 512/512/512 511/511/511
f 507/507/507 508/508/508 513/513/513
f 507/507/507 513/513/513 512/512/512
f 508/508/508 509/509/509 514/514/514
f 508/508/508 514/514/514 513/513/513
f 509/509/509 510/510/510 515/515/515
f 509/509/509 515/515/515 514/514/514
f 511/511/511 512/512/512 517/517/517
f 511/511/511 517/517/517 516/516/516
f 512/512/512 513/513/513 518/518/518
f 512/512/512 518/518/518 517/517/517
f 513/513/513 514/514/514 519/519/519
f 513/513/513 519/519/519 518/518/518
f 514/514/514 515/515/515 520/520/520
f 514/514/514 520/520/520 519/519/519
f 516/516/516 517/517/517 522/522/522
f 516/516/516 522/522/522 521/521/521
f 517/517/517 518/518/518 523/523/523
f 517/517/517 523/523/523 522/522/522
f 518/518/518 519/519/519 524/524/524
f 518/518/518 524/524/524 523/523/523
f 519/519/519 520/520/520 525/525/525
f 519/519/519 525/525/525 524/524/524
f 526/526/526 532/532/532 531/531/531
f 527/527/527 528/528/528 533/533/533
f 527/527/527 533/533/533 532/532/532
f 528/528/528 529/529/529 534/534/534
f 528/528/528 534/534/534 533/533/533
f 529/529/529 535/535/535 534/534/534
f 531/531/531 532/532/532 537/537/537
f 531/531/531 537/537/537 536/536/536
f 532/532/532 533/533/533 538/538/538
f 532/532/532 538/538/538 537/537/537
f 533/533/533 534/534/534 539/539/539
f 533/533/533 539/539/539 538/538/538
f 534/534/534 535/535/535 540/540/540
f 534/534/534 540/540/540 539/539/539
f 536/536/536 537/537/537 542/542/542
f 536/536/536 542/542/542 541/541/541
f 537/537/537 538/538/538 543/543/543
f 537/537/537 543/543/543 542/542/542
f 538/538/538 539/539/539 544/544/544
f 538/538/538 544/544/544 543/543/543
f 539/539/539 540/540/540 545/545/545
f 539/539/539 545/545/545 544/544/544
f 541/541/541 542/542/542 547/547/547
f 541/541/541 547/547/547 546/546/546
f 542/542/542 543/543/543 548/548/548
f 542/542/542 548/548/548 547/547/547
f 543/543/543 544/544/544 549/549/549
f 543/543/543 549/549/549 548/548/548
f 544/544/544 545/545/545 550/550/550
f 544/544/544 550/550/550 549/549/549
f 551/551/551 557/557/557 556/556/556
f 552/552/552 553/553/553 558/558/558
f 552/552/552 558/558/558 557/557/557
f 553/553/553 554/554/554 559/559/559
f 553/553/553 559/559/559 558/558/558
f 554/554/554 560/560/560 559/559/559
f 556/556/556 557/557/557 562/562/562
f 556/556/556 562/562/562 561/561/561
f 557/557/557 558/558/558 563/563/563
f 557/557/557 563/563/563 562/562/562
f 558/558/558 559/559/559 564/564/564
f 558/558/558 564/564/564 563/563/563
f 559/559/559 560/560/560 565/565/565
f 559/559/559 565/565/565 564/564/564
f 561/561/561 562/562/562 567/567/567
f 561/561/561 567/567/567 566/566/566
f 562/562/562 563/563/563 568/568/568
f 562/562/562 568/568/568 567/567/567
f 563/563/563 564/564/564 569/569/569
f 563/563/563 569/569/569 568/568/568
f 564/564/564 565/565/565 570/570/570
f 564/564/564 570/570/570 569/569/569
f 566/566/566 567/567/567 572/572/572
f 566/566/566 572/572/572 571/571/571
f 567/567/567 568/568/568 573/573/573
f 567/567/567 573/573/573 572/572/572
f 568/568/568 569/569/569 574/574/574
f 568/568/568 574/574/574 573/573/573
f 569/569/569 570/570/570 575/575/575
f 569/569/569 575/575/575 574/574/574
f 576/576/576 582/582/582 581/581/581
f 577/577/577 578/578/578 583/583/583
f 577/577/577 583/583/583 582/582/582
f 578/578/578 579/579/579 584/584/584
f 578/578/578 584/584/584 583/583/583
f 579/579/579 585/585/585 584/584/584
f 581/581/581 582/582/582 587/587/587
f 581/581/581 587/587/587 586/586/586
f 582/582/582 583/583/583 588/588/588
f 582/582/582 588/588/588 587/587/587
f 583/583/583 584/584/584 589/589/589
f 583/583/583 589/589/589 588/588/588
f 584/584/584 585/585/585 590/590/590
f 584/584/584 590/590/590 589/589/589
f 586/586/586 587/587/587 592/592/592
f 586/586/586 592/592/592 591/591/591
f 587/587/587 588/588/588 593/593/593
f 587/587/587 593/593/593 592/592/592
f 588/588/588 589/589/589 594/594/594
f 588/588/588 594/594/594 593/593/593
f 589/589/589 590/590/590 595/595/595
f 589/589/589 595/595/595 594/594/594
f 591/591/591 592/592/592 597/597/597
f 591/591/591 597/597/597 596/596/596
f 592/592/592 593/593/593 598/598/598
f 592/592/592 598/598/598 597/597/597
f 593/593/593 594/594/594 599/599/599
f 593/593/593 599/599/599 598/598/598
f 594/594/594 595/595/595 600/600/600
f 594/594/594 600/600/600 599/599/599
f 601/601/601 602/602/602 607/607/607
f 601/601/601 607/607/607 606/606/606
f 602/602/602 603/603/603 608/608/608
f 602/602/602 608/608/608 607/607/607
f 603/603/603 604/604/604 609/609/609
f 603/603/603 609/609/609 608/608/608
f 604/604/604 605/605/605 610/610/610
f 604/604/604 610/610/610 609/609/609
f 606/606/606 607/607/607 612/612/612
f 606/606/606 612/612/612 611/611/611
f 607/607/607 608/608/608 613/613/613
f 607/607/607 613/613/613 612/612/612
f 608/608/608 609/609/609 614/614/614
f 608/608/608 614/614/614 613/613/613
f 609/609/609 610/610/610 615/615/615
f 609/609/609 615/615/615 614/614/614
f 626/626/626 627/627/627 632/632/632
f 626/626/626 632/632/632 631/631/631
f 627/627/627 628/628/628 633/633/633
f 627/627/627 633/633/633 632/632/632
f 628/628/628 629/629/629 634/634/634
f 628/628/628 634/634/634 633/633/633
f 629/629/629 630/630/630 635/635/635
f 629/629/629 635/635/635 634/634/634
f 631/631/631 632/632/632 637/637/637
f 631/631/631 637/637/637 636/636/636
f 632/632/632 633/633/633 638/638/638
f 632/632/632 638/638/638 637/637/637
f 633/633/633 634/634/634 639/639/639
f 633/633/633 639/639/639 638/638/638
f 634/634/634 635/635/635 640/640/640
f 634/634/634 640/640/640 639/639/639
f 651/651/651 652/652/652 657/657/657
f 651/651/651 657/657/657 656/656/656
f 652/652/652 653/653/653 658/658/658
f 652/652/652 658/658/658 657/657/657
f 653/653/653 654/654/654 659/659/659
f 653/653/653 659/659/659 658/658/658
f 654/654/654 655/655/655 660/660/660
f 654/654/654 660/660/660 659/659/659
f 656/656/656 657/657/657 662/662/662
f 656/656/656 662/662/662 661/661/661
f 657/657/657 658/658/658 663/663/663
f 657/657/657 663/663/663 662/662/662
f 658/658/658 659/659/659 664/664/664
f 658/658/658 664/664/664 663/663/663
f 659/659/659 660/660/660 665/665/665
f 659/659/659 665/665/665 664/664/664
f 676/676/676 677/677/677 682/682/682
f 676/676/676 682/682/682 681/681/681
f 677/677/677 678/678/678 683/683/683
f 677/677/677 683/683/683 682/682/682
f 678/678/678 679/679/679 684/684/684
f 678/678/678 684/684/684 683/683/683
f 679/679/679 680/680/680 685/685/685
f 679/679/679 685/685/685 684/684/684
f 681/681/681 682/682/682 687/687/687
f 681/681/681 687/687/687 686/686/686
f 682/682/682 683/683/683 688/688/688
f 682/682/682 688/688/688 687/687/687
f 683/683/683 684/684/684 689/689/689
f 683/683/683 689/689/689 688/688/688
f 684/684/684 685/685/685 690/690/690
f 684/684/684 690/690/690 689/689/689
o gun_muzzle:1
f 801 802 803
o gun_muzzle:1
f 804 805 806
o engine_glow:0
f 807 808 809
o engine_glow:0
f 810 811 812
o missile:0
f 813 814 815
o missile:0
f 816 817 818
o missile:0
f 819 820 821
o missile:0
f 822 823 824
o eject_point
f 825 826 827
